<?xml version="1.0" encoding="UTF-8"?><svg xmlns="http://www.w3.org/2000/svg" viewBox="0 0 148.58 144.43"><defs><style>.cls-1{fill:#0d465b;}</style></defs><title>Asset 24</title><g id="Layer_2" data-name="Layer 2"><g id="Layer_2-2" data-name="Layer 2"><path class="cls-1" d="M72.6 27a2.85 2.85 0 0 1 .22 1c0 .12.19.12.19 0a2.42 2.42 0 0 0-.28-1c-.04-.14-.16-.09-.13 0z" fill="#0d465b"/><path class="cls-1" d="M73.42 29.77c-.07-.19-.1-.39-.16-.58s-.22-.06-.18 0 .1.39.17.58.21.11.17 0z" fill="#0d465b"/><path class="cls-1" d="M70.43 19.09c.24.57.82 1 1.09 1.55 0 .07.15 0 .13-.05a3 3 0 0 0-.88-1.33c-.58-.63-.1-1.72-.25-2.49 0-.09-.14 0-.13 0 .13.8-.26 1.6.04 2.32z" fill="#0d465b"/><path class="cls-1" d="M76.62 28a2.85 2.85 0 0 1 .22-1c0-.07-.09-.12-.13-.05a2.42 2.42 0 0 0-.28 1c0 .13.19.13.19.05z" fill="#0d465b"/><path class="cls-1" d="M76.2 29.82c.07-.19.1-.39.17-.58s-.14-.16-.18 0-.1.39-.16.58.13.11.17 0z" fill="#0d465b"/><path class="cls-1" d="M77.92 20.64c.27-.58.85-1 1.09-1.55s-.09-1.52 0-2.28c0-.08-.11-.12-.13 0-.15.77.33 1.86-.25 2.49a3 3 0 0 0-.88 1.33c.03.03.14.09.17.01z" fill="#0d465b"/><path class="cls-1" d="M122.33 60.22a2.84 2.84 0 0 1-.86.52c-.11 0-.05.22.06.18a2.43 2.43 0 0 0 .9-.59c.05-.06-.04-.17-.1-.11z" fill="#0d465b"/><path class="cls-1" d="M120.34 61.37c-.16.13-.34.22-.5.34s0 .22.1.15.34-.21.5-.34-.01-.22-.1-.15z" fill="#0d465b"/><path class="cls-1" d="M131.3 54.94c-.67.36-1.56.24-2.15.75s-.66 1.08-1.13 1.52c-.06.06 0 .15.09.1a3.05 3.05 0 0 0 1-1.25c.42-.74 1.6-.63 2.28-1 .06-.06-.02-.16-.09-.12z" fill="#0d465b"/><path class="cls-1" d="M122.6 64.17c-.12 0-.06.21.06.18a2.8 2.8 0 0 1 1-.09c.08 0 .09-.13 0-.14a2.43 2.43 0 0 0-1.06.05z" fill="#0d465b"/><path class="cls-1" d="M121.36 64.32h-.61c-.21 0-.11.18 0 .18h.61c.21 0 .12-.18 0-.18z" fill="#0d465b"/><path class="cls-1" d="M131.56 63.58a3 3 0 0 0-1.53-.42c-.08 0-.09.13 0 .14.64.08 1.19.5 1.82.55.78.06 1.42-.56 2.17-.67.09 0 .08-.14 0-.13-.8.08-1.68.88-2.46.53z" fill="#0d465b"/><path class="cls-1" d="M148.27 53.46a14.55 14.55 0 0 0-1.92.5 14 14 0 0 1-3 .17c-.94-.08-1.86-.42-2.8-.43a3.72 3.72 0 0 0-.73.06 5.83 5.83 0 0 0-3-1.86 2.21 2.21 0 0 0-1.81.4 2 2 0 0 0-.77-.15 6.23 6.23 0 0 1-.92-.21 3.91 3.91 0 0 1-.92-.41l-.39-.23c1.12-3.29-1.12-8.48-2.37-10.91-3.63-7-8.77-11.13-15.16-15-6.42-5.78-12.27-10.12-21-11.52-2.7-.43-8.33-.94-11.11 1.16l-.37-.3a4 4 0 0 1-.7-.73 6.39 6.39 0 0 1-.49-.81 2 2 0 0 0-.39-.69 2.21 2.21 0 0 0-.18-1.85 5.82 5.82 0 0 0-2.71-2.29 3.64 3.64 0 0 0-.17-.71C77 6.73 76.43 6 76.06 5.1a13 13 0 0 1-.72-2.65 2 2 0 0 0-.34-.87c-.08-.48-.19-1-.26-1.41 0-.29-.43-.17-.46.06a14.46 14.46 0 0 0-.12 2 14 14 0 0 1-.76 2.86c-.37.87-1 1.63-1.29 2.53a3.65 3.65 0 0 0-.17.71 5.82 5.82 0 0 0-2.71 2.29 2.21 2.21 0 0 0-.23 1.86 2 2 0 0 0-.39.69 6.38 6.38 0 0 1-.49.81 4 4 0 0 1-.68.74l-.34.29c-2.78-2.09-8.4-1.59-11.11-1.16C47.9 15.17 42.27 19 36.36 24.18a.15.15 0 0 0-.15 0C28.71 28.66 22.77 33 18.82 41c-1.21 2.46-3.35 7.68-2.17 11l-.38.24a3.89 3.89 0 0 1-.91.43 6.34 6.34 0 0 1-.92.23 2 2 0 0 0-.77.17 2.21 2.21 0 0 0-1.82-.37 5.83 5.83 0 0 0-3 1.91 3.73 3.73 0 0 0-.73 0c-.95 0-1.85.39-2.8.49a12.94 12.94 0 0 1-2.75-.09 2 2 0 0 0-.92.07c-.48-.06-1-.1-1.42-.16-.29 0-.29.36-.08.46A14.37 14.37 0 0 0 2 56a14 14 0 0 1 2.51 1.57c.72.61 1.27 1.42 2 2a3.76 3.76 0 0 0 .63.37 5.82 5.82 0 0 0 1.46 3.25 2.21 2.21 0 0 0 1.71.72 2 2 0 0 0 .54.57 6.27 6.27 0 0 1 .63.7 3.94 3.94 0 0 1 .51.87l.18.41c-2.82 2-4 7.56-4.37 10.27-1.1 7.84.71 14.15 3.7 21 1.89 8.43 4.16 15.35 10.48 21.56 2 1.92 6.25 5.58 9.73 5.48l.11.44a3.9 3.9 0 0 1 .12 1 6.51 6.51 0 0 1-.07.95 2 2 0 0 0-.08.78 2.21 2.21 0 0 0-.92 1.61 5.83 5.83 0 0 0 .88 3.43 3.75 3.75 0 0 0-.28.68c-.26.91-.21 1.88-.41 2.81a13 13 0 0 1-1 2.59 2 2 0 0 0-.22.91c-.21.44-.39.88-.6 1.29s.25.39.41.22a14.44 14.44 0 0 0 1.35-1.53 14 14 0 0 1 2.26-1.95c.8-.5 1.74-.77 2.51-1.32a3.73 3.73 0 0 0 .55-.48 5.83 5.83 0 0 0 3.53-.3 2.22 2.22 0 0 0 1.22-1.4 2 2 0 0 0 .71-.34 6.22 6.22 0 0 1 .87-.38 4 4 0 0 1 1-.22h.45c1.06 3.31 5.93 6.16 8.39 7.37 7.1 3.5 13.67 3.75 21.1 3.05 8.6.84 15.88.85 23.75-3.22 2.43-1.26 7.25-4.19 8.25-7.53h.45a3.91 3.91 0 0 1 1 .2 6.35 6.35 0 0 1 .88.37 2 2 0 0 0 .72.32 2.21 2.21 0 0 0 1.25 1.38 5.82 5.82 0 0 0 3.54.23 3.75 3.75 0 0 0 .56.47c.78.53 1.72.79 2.54 1.27a13 13 0 0 1 2.16 1.71 2 2 0 0 0 .78.49c.35.33.72.65 1 1s.45-.12.33-.32a14.52 14.52 0 0 0-1.08-1.67 14.06 14.06 0 0 1-1.08-2.75c-.22-.92-.18-1.9-.46-2.8a3.76 3.76 0 0 0-.29-.67 5.82 5.82 0 0 0 .82-3.45 2.22 2.22 0 0 0-1-1.6 2 2 0 0 0-.1-.78 6.25 6.25 0 0 1-.09-.94 4 4 0 0 1 .1-1l.1-.44c3.48 0 7.7-3.71 9.62-5.67 5.54-5.65 7.84-11.81 9.5-19.09 3.48-7.9 5.77-14.82 4.37-23.57-.43-2.7-1.71-8.2-4.57-10.19l.17-.42a3.89 3.89 0 0 1 .5-.87 6.36 6.36 0 0 1 .62-.72 2 2 0 0 0 .53-.58 2.21 2.21 0 0 0 1.7-.75 5.83 5.83 0 0 0 1.33-3.29 3.71 3.71 0 0 0 .63-.38c.75-.58 1.29-1.39 2-2a13 13 0 0 1 2.3-1.51 2 2 0 0 0 .72-.59c.43-.23.84-.48 1.26-.69.33-.19.1-.52-.13-.47zm-27.65 14.77h-.12v-.09zm15.51.77c.62 5.18-1.87 9.9-4.8 14 0 0 0 .1.06.05 2.32-3.21 5.42-7.79 5.39-12.11.06.29.12.6.16.9-.24 5.5-3.25 10.19-6.77 14.4-.12.14.09.33.21.19 2.83-3.32 5.75-7.25 6.75-11.59 0 .71 0 1.42-.1 2.11-1.33 4.72-4.62 8.41-7.72 12.24-.08.1.07.23.15.13 2.62-3 5.53-5.92 7.16-9.46v.2c-.07.24-.14.48-.21.71a20.24 20.24 0 0 1-1.6 3.28 41.62 41.62 0 0 1-5.86 7.14c-.12.13.08.3.2.18a46.16 46.16 0 0 0 5.25-5.81 24.43 24.43 0 0 1-5.87 7.2c-.07.06 0 .19.08.13a25.38 25.38 0 0 0 4.89-5.18c-.32.61-.65 1.21-1 1.78a25.22 25.22 0 0 1-4.88 5.29c-.09-.35-.17-.69-.27-1-.06-.21-.41-.12-.37.09.07.45.16.89.25 1.33l-.58.56c-.15.15.08.43.25.29l.43-.36a22.88 22.88 0 0 1 .82 6.64c0 .67-.13 1.35-.22 2a25.35 25.35 0 0 0-1-7.05c0-.09-.17 0-.14.05a24.42 24.42 0 0 1 .62 9.28 46.15 46.15 0 0 0-.91-7.79c0-.17-.29-.14-.27 0a41.59 41.59 0 0 1 .65 9.22 20.33 20.33 0 0 1-.59 3.6c-.08.24-.16.47-.24.7l-.08.19c.71-3.83 0-7.88-.37-11.86a.1.1 0 0 0-.2 0c.31 4.92.86 9.83-.79 14.45-.35.6-.73 1.2-1.14 1.78 1.69-4.12 1.58-9 1.2-13.36a.14.14 0 0 0-.29 0c.44 5.46.18 11-2.81 15.66-.22.22-.43.44-.66.64 2.53-3.5 2.64-9 2.61-13 0-.05-.08 0-.08 0 0 5.07-.69 10.36-4.2 14.23a5.65 5.65 0 0 1-1.81.7 7.32 7.32 0 0 0 1.49-1.76c2.16-3.49 2.91-7 3.55-10.95a.07.07 0 0 0-.15 0 33.67 33.67 0 0 1-1.47 6.71c-.59 1.56-3.07 6.46-5.53 5.79a4.16 4.16 0 0 0 1-.53c2.28-1.57 3.08-5.14 3.9-7.58-.51 1.38-1 2.75-1.67 4.08a14.16 14.16 0 0 1-1.29 2.14c-.47.65-1.64 1.88-2.65 1.64a4.65 4.65 0 0 1-.26-.49c1.26-.5 3.21-3.48 3.49-4 0-.08-.09-.14-.14-.06-.38.66-2.39 3.65-3.49 3.71-.82-2.11-.71-5.18-1.42-7a9.65 9.65 0 0 0-4.65-4.65 9 9 0 0 0-5.94-.92l.36-.17a6.81 6.81 0 0 1 7.32.93c.1.09.22-.07.13-.16a7.54 7.54 0 0 0-6.61-1.72 10.4 10.4 0 0 0-3.92 1.52 6.32 6.32 0 0 0-3.62 2.7 10.39 10.39 0 0 0-2.6 3.3 7.54 7.54 0 0 0-.31 6.83c.06.12.25 0 .19-.07a6.81 6.81 0 0 1 1.27-7.27l.27-.29a9 9 0 0 0-.87 6 9.66 9.66 0 0 0 3.08 5.82c1.54 1.22 4.51 2 6.28 3.42-.38 1-3.84 2.08-4.58 2.24-.09 0-.08.17 0 .15.56-.12 4-1.11 4.83-2.17a4.49 4.49 0 0 1 .39.4c-.07 1-1.59 1.8-2.35 2.05a14.06 14.06 0 0 1-2.43.6c-1.46.21-2.92.32-4.39.4 2.57-.07 6.22.22 8.39-1.5a4.13 4.13 0 0 0 .82-.85c-.08 2.55-5.5 3.48-7.16 3.58a33.57 33.57 0 0 1-6.85-.57.07.07 0 0 0 0 .14c4 .57 7.54.87 11.51-.17a7.36 7.36 0 0 0 2.13-.91 5.66 5.66 0 0 1-1.2 1.53c-4.73 2.21-10 1.32-14.83-.18 0 0-.08.06 0 .08 3.77 1.2 9.1 2.71 13.18 1.33-.26.15-.53.3-.8.44-5.3 1.5-10.7.1-15.79-1.92a.14.14 0 0 0-.11.26c4 1.65 8.69 3.19 13.12 2.79-.68.22-1.36.41-2 .57-4.9.21-9.44-1.76-14-3.5-.12 0-.2.13-.08.18 3.69 1.54 7.35 3.4 11.22 3.85h-.95a20.2 20.2 0 0 1-3.62-.5 41.67 41.67 0 0 1-8.61-3.34c-.16-.08-.26.17-.11.25a46.28 46.28 0 0 0 7.1 3.24 24.41 24.41 0 0 1-8.67-3.32c-.08-.05-.18.07-.09.12a25.39 25.39 0 0 0 6.45 3c-.68-.11-1.35-.24-2-.39a25.2 25.2 0 0 1-6.55-3l.91-.58c.18-.12 0-.43-.2-.33-.4.21-.79.43-1.18.65l-.72-.37c-.19-.1-.38.21-.2.33l.48.29a22.86 22.86 0 0 1-6.05 2.85c-.65.16-1.32.3-2 .42a25.38 25.38 0 0 0 6.39-3.14c.08-.05 0-.17-.1-.12a24.41 24.41 0 0 1-8.62 3.49 46 46 0 0 0 7.11-3.3c.15-.08 0-.32-.11-.25a41.63 41.63 0 0 1-8.55 3.5 20.21 20.21 0 0 1-3.61.57h-1c3.86-.52 7.49-2.45 11.15-4.06a.1.1 0 0 0-.08-.18c-4.57 1.83-9.07 3.89-14 3.77-.68-.15-1.37-.32-2-.53 4.44.32 9.06-1.31 13.07-3 .17-.07.05-.33-.12-.26-5.05 2.12-10.42 3.62-15.75 2.23-.28-.13-.55-.27-.82-.42 4.11 1.31 9.41-.31 13.16-1.58v-.07c-4.82 1.58-10.06 2.58-14.83.46a5.65 5.65 0 0 1-1.23-1.5 7.36 7.36 0 0 0 2.14.86c4 1 7.52.59 11.51-.05a.07.07 0 0 0 0-.14 33.66 33.66 0 0 1-6.83.7c-1.67-.07-7.1-.89-7.23-3.44a4.18 4.18 0 0 0 .83.83c2.21 1.67 5.85 1.32 8.42 1.34-1.47-.05-2.93-.13-4.39-.31a14.29 14.29 0 0 1-2.44-.55c-.77-.24-2.3-1-2.39-2v-.05a4.44 4.44 0 0 1 .38-.4c.87 1 4.31 2 4.87 2.07.1 0 .11-.13 0-.15-.74-.16-4.22-1.13-4.62-2.16 1.75-1.44 4.7-2.29 6.22-3.54a9.64 9.64 0 0 0 3-5.87 9 9 0 0 0-1-5.93c.09.09.19.18.27.28a6.82 6.82 0 0 1 1.41 7.25c-.05.12.14.19.19.07a7.54 7.54 0 0 0-.44-6.82 10.41 10.41 0 0 0-2.66-3.25 6.32 6.32 0 0 0-3.62-2.57 10.39 10.39 0 0 0-3.95-1.44 7.54 7.54 0 0 0-6.64 1.78c-.09.09 0 .25.13.16a6.82 6.82 0 0 1 7.3-1.07l.36.16a9 9 0 0 0-5.93 1 9.67 9.67 0 0 0-4.56 4.75c-.68 1.84-.5 4.91-1.28 7-1.1 0-3.17-3-3.56-3.65-.05-.08-.19 0-.14.07.29.49 2.29 3.43 3.57 3.91a4.8 4.8 0 0 1-.25.5c-1 .26-2.21-.95-2.68-1.59a14 14 0 0 1-1.33-2.12c-.65-1.32-1.22-2.67-1.75-4 .87 2.42 1.74 6 4 7.5a4.11 4.11 0 0 0 1.06.51c-2.45.72-5-4.13-5.64-5.68a33.56 33.56 0 0 1-1.6-6.68.07.07 0 0 0-.14 0c.71 4 1.53 7.43 3.76 10.88a7.34 7.34 0 0 0 1.52 1.74 5.66 5.66 0 0 1-1.83-.66c-3.58-3.8-4.37-9.07-4.47-14.14 0-.05-.08-.06-.08 0 0 4 .27 9.49 2.86 12.94-.23-.2-.45-.41-.67-.63-3.08-4.57-3.44-10.13-3.11-15.61a.14.14 0 0 0-.29 0c-.3 4.35-.32 9.25 1.45 13.34-.42-.57-.81-1.16-1.17-1.75-1.73-4.59-1.28-9.51-1.06-14.44a.1.1 0 0 0-.2 0c-.31 4-.93 8-.14 11.86l-.09-.19c-.09-.23-.17-.46-.25-.7a20.24 20.24 0 0 1-.66-3.59 41.6 41.6 0 0 1 .48-9.23c0-.17-.24-.19-.27 0a46.31 46.31 0 0 0-.77 7.79 24.43 24.43 0 0 1 .44-9.27c0-.09-.12-.15-.14-.05a25.4 25.4 0 0 0-.86 7.07c-.11-.68-.2-1.36-.26-2a25.21 25.21 0 0 1 .79-7.15l.84.68c.17.14.4-.14.25-.3-.33-.32-.66-.62-1-.92 0-.27.09-.53.13-.8s-.32-.3-.37-.08l-.13.55a22.84 22.84 0 0 1-4.6-4.86c-.36-.57-.7-1.16-1-1.76a25.37 25.37 0 0 0 5 5.08c.08.06.16-.07.08-.13a24.35 24.35 0 0 1-5.86-6.89A48.21 48.21 0 0 0 20.28 92c.12.12.32-.06.2-.18a41.62 41.62 0 0 1-6-7 19.87 19.87 0 0 1-1.54-3c-.12-.35-.25-.7-.36-1.05v-.14c1.7 3.5 4.67 6.35 7.34 9.32.09.09.23 0 .15-.13-3.17-3.77-6.52-7.4-8-12.09-.07-.69-.12-1.4-.14-2.11C13 80 16 83.84 18.92 87.1c.12.14.33-.05.21-.2-3.6-4.14-6.7-8.77-7-14.27 0-.31.09-.61.14-.91 0 4.31 3.24 8.84 5.62 12 0 0 .09 0 .06-.06-3-4.08-5.59-8.75-5.07-13.94a5.66 5.66 0 0 1 1-1.64 7.35 7.35 0 0 0-.15 2.31c.34 4.09 1.79 7.33 3.65 10.91a.07.07 0 0 0 .13-.07 33.72 33.72 0 0 1-2.8-6.23c-.45-1.61-1.37-7 1-7.94a4.16 4.16 0 0 0-.53 1c-.9 2.62.57 6 1.36 8.42-.41-1.41-.79-2.83-1.08-4.27a14.36 14.36 0 0 1-.24-2.49c0-.8.2-2.49 1.16-2.9a4.48 4.48 0 0 1 .51.24c-.72 1.16-.51 4.71-.45 5.27 0 .1.16.06.15 0-.08-.75-.25-4.36.61-5.06 1.91 1.21 3.65 3.75 5.3 4.8a9.64 9.64 0 0 0 6.51 1 9 9 0 0 0 5.33-2.78c-.06.12-.12.23-.19.35a6.82 6.82 0 0 1-6.44 3.6c-.13 0-.14.19 0 .2a7.54 7.54 0 0 0 6.34-2.55 10.42 10.42 0 0 0 2.25-3.55A6.31 6.31 0 0 0 37.69 64a10.37 10.37 0 0 0 .14-4.18A7.55 7.55 0 0 0 34 54.19c-.12-.06-.23.11-.11.17a6.81 6.81 0 0 1 3.3 6.6v.39a9 9 0 0 0-2.84-5.3 9.67 9.67 0 0 0-5.95-2.85c-2-.07-4.82 1.06-7.08 1-.31-1.06 1.86-4 2.35-4.52.06-.07 0-.19-.11-.11C23.19 50 21 52.8 21 54.16a4.54 4.54 0 0 1-.55-.09c-.56-.88.21-2.39.67-3a13.93 13.93 0 0 1 1.6-1.93c1-1 2.16-2 3.29-2.92-2 1.58-5.13 3.52-5.86 6.19a4.1 4.1 0 0 0-.16 1.17c-1.46-2.1 2.36-6.06 3.63-7.14a33.52 33.52 0 0 1 5.85-3.6.07.07 0 0 0-.07-.13c-3.55 1.92-6.58 3.77-9.16 7a7.34 7.34 0 0 0-1.17 2 5.65 5.65 0 0 1-.07-2.08c2.49-4.59 7.25-7 12-8.67v-.08c-3.75 1.28-8.93 3.22-11.4 6.76.12-.28.25-.55.39-.83 3.38-4.35 8.55-6.44 13.85-7.83a.14.14 0 0 0-.06-.28c-4.23 1.07-8.89 2.59-12.21 5.55.41-.58.85-1.14 1.3-1.66 3.82-3.08 8.64-4.19 13.38-5.52a.1.1 0 0 0 0-.19c-3.88 1-7.93 1.63-11.31 3.57l.16-.14.58-.45a20.21 20.21 0 0 1 3.21-1.75 41.58 41.58 0 0 1 8.91-2.43c.17 0 .11-.29-.06-.26a46.29 46.29 0 0 0-7.64 1.71 24.43 24.43 0 0 1 8.9-2.51c.1 0 .1-.16 0-.15a25.33 25.33 0 0 0-7 1.4c.61-.31 1.23-.61 1.84-.88 2.52-1.1 5.05-1.19 7.68-1.58l-.19.46c-.08.2.25.34.35.15s.23-.46.34-.69h.19a.19.19 0 0 0 0-.37c1-2.24 1.87-4.46 3.55-6.41.44-.51.9-1 1.38-1.5a25.37 25.37 0 0 0-3.39 6.26c0 .09.11.13.15 0a24.41 24.41 0 0 1 5-7.83 46.3 46.3 0 0 0-3.88 6.8c-.08.15.15.29.23.14a41.65 41.65 0 0 1 4.95-7.8 20.21 20.21 0 0 1 2.61-2.55l.62-.43.18-.1c-2.85 2.66-4.69 6.33-6.74 9.76-.07.11.1.21.17.1 2.67-4.14 5.15-8.41 9.21-11.16.64-.27 1.3-.53 2-.75-3.81 2.31-6.63 6.31-8.9 10-.1.16.15.3.25.14 2.9-4.65 6.41-9 11.56-10.93.31-.05.61-.1.91-.13-4.11 1.31-7.49 5.7-9.82 8.9 0 0 0 .08.07 0 3-4.08 6.71-7.92 11.83-9a5.65 5.65 0 0 1 1.88.52 7.34 7.34 0 0 0-2.25.53c-3.81 1.52-6.48 3.87-9.36 6.7-.07.07 0 .17.1.1a33.69 33.69 0 0 1 5.17-4.53c1.4-.9 6.31-3.38 7.89-1.37a4.13 4.13 0 0 0-1.16-.19c-2.77-.09-5.54 2.31-7.64 3.78 1.23-.81 2.47-1.59 3.77-2.29a14.08 14.08 0 0 1 2.31-1c.76-.25 2.44-.54 3.11.25a4.43 4.43 0 0 1-.08.55c-1.31-.34-4.65.89-5.17 1.12-.09 0 0 .17.08.13.69-.3 4.09-1.52 5-.91-.59 2.19-2.51 4.59-3 6.48a9.66 9.66 0 0 0 1 6.51 9 9 0 0 0 4.23 4.27l-.39-.08a6.82 6.82 0 0 1-5.34-5.1c0-.13-.22-.07-.2.05a7.54 7.54 0 0 0 4.3 5.31 10.38 10.38 0 0 0 4 1.1 6.33 6.33 0 0 0 4.48 0 10.38 10.38 0 0 0 4-1.1 7.54 7.54 0 0 0 4.3-5.31c0-.13-.17-.19-.2-.05a6.82 6.82 0 0 1-5.34 5.1l-.39.08a9 9 0 0 0 4.23-4.27 9.66 9.66 0 0 0 1-6.51c-.51-1.89-2.43-4.3-3-6.48.92-.61 4.32.61 5 .91.09 0 .17-.09.08-.13-.52-.23-3.85-1.47-5.17-1.12a4.41 4.41 0 0 1-.08-.55c.67-.79 2.35-.5 3.11-.25a14.07 14.07 0 0 1 2.31 1c1.29.7 2.54 1.48 3.77 2.29-2.11-1.47-4.87-3.87-7.64-3.78a4.13 4.13 0 0 0-1.16.19c1.58-2 6.49.47 7.89 1.37a33.69 33.69 0 0 1 5.17 4.53c.07.07.17 0 .1-.1-2.88-2.83-5.54-5.18-9.36-6.7a7.34 7.34 0 0 0-2.25-.53 5.65 5.65 0 0 1 1.88-.52c5.12 1 8.82 4.87 11.83 9h.07c-2.33-3.2-5.71-7.59-9.82-8.9.3 0 .6.08.91.13 5.27 2 8.79 6.3 11.68 10.98.1.16.34 0 .25-.14-2.27-3.73-5.09-7.73-8.9-10 .68.23 1.34.48 2 .75 4.07 2.74 6.54 7 9.21 11.16.07.11.24 0 .17-.1-2.05-3.43-3.9-7.1-6.74-9.76l.18.1.62.43a20.22 20.22 0 0 1 2.61 2.55 41.66 41.66 0 0 1 4.95 7.8c.08.15.31 0 .23-.14a46.3 46.3 0 0 0-3.88-6.8 24.41 24.41 0 0 1 5 7.83c0 .09.18.05.15 0a25.37 25.37 0 0 0-3.42-6.36c.48.49.95 1 1.38 1.5a25.19 25.19 0 0 1 3.5 6.29l-1.11-.06c-.22 0-.25.35 0 .38.45.07.9.13 1.34.18.12.24.23.48.35.73s.43.06.35-.15l-.21-.52a22.9 22.9 0 0 1 6.56 1.3c.62.26 1.24.54 1.86.84a25.37 25.37 0 0 0-7-1.26c-.1 0-.09.15 0 .15a24.42 24.42 0 0 1 9 2.31 46.13 46.13 0 0 0-7.68-1.56c-.17 0-.23.23-.06.26a41.65 41.65 0 0 1 9 2.26 20.31 20.31 0 0 1 3.24 1.69l.6.45.15.14c-3.44-1.93-7.5-2.49-11.4-3.36a.1.1 0 0 0 0 .19C116.82 38 121.66 39 125.54 42c.46.52.91 1.07 1.33 1.64-3.38-2.9-8.07-4.32-12.32-5.32a.14.14 0 0 0-.06.28c5.33 1.3 10.53 3.28 14 7.56.15.27.28.55.41.82-2.53-3.49-7.75-5.34-11.53-6.54-.05 0-.07.06 0 .08 4.82 1.59 9.62 3.9 12.2 8.44a5.64 5.64 0 0 1 .09 1.94 7.35 7.35 0 0 0-1.21-2c-2.64-3.14-5.7-4.94-9.29-6.79a.07.07 0 0 0-.07.13A33.73 33.73 0 0 1 125 45.8c1.3 1 5.18 4.94 3.77 7.06a4.13 4.13 0 0 0-.18-1.16c-.78-2.66-3.92-4.54-6-6.08 1.15.91 2.28 1.85 3.35 2.86a14 14 0 0 1 1.63 1.89c.48.65 1.27 2.15.73 3a4.5 4.5 0 0 1-.55.1c-.08-1.36-2.3-4.14-2.68-4.56-.07-.07-.17 0-.1.11.5.57 2.72 3.41 2.43 4.48-2.26.12-5.14-.95-7.1-.85a9.65 9.65 0 0 0-5.87 3 9 9 0 0 0-2.74 5.36v-.39a6.82 6.82 0 0 1 3.08-6.62c.11-.07 0-.23-.11-.17a7.55 7.55 0 0 0-3.7 5.75 10.38 10.38 0 0 0 .22 4.16 6.34 6.34 0 0 0 1.38 4.26 10.4 10.4 0 0 0 2.32 3.51 7.55 7.55 0 0 0 6.39 2.43c.13 0 .12-.22 0-.21a6.81 6.81 0 0 1-6.51-3.48c-.07-.11-.13-.23-.19-.35a9 9 0 0 0 5.38 2.68 9.65 9.65 0 0 0 6.49-1.1c1.64-1.08 3.32-3.65 5.21-4.9.87.69.77 4.3.7 5 0 .1.14.13.15 0 .06-.57.19-4.12-.55-5.26a4.53 4.53 0 0 1 .5-.25c1 .39 1.21 2.07 1.21 2.87a14.05 14.05 0 0 1-.19 2.49c-.26 1.45-.61 2.87-1 4.29.74-2.46 2.15-5.84 1.2-8.44a4.12 4.12 0 0 0-.55-1c2.4.87 1.58 6.31 1.16 7.92a33.66 33.66 0 0 1-2.69 6.32.07.07 0 0 0 .13.07c1.79-3.62 3.18-6.89 3.44-11a7.33 7.33 0 0 0-.2-2.3 5.66 5.66 0 0 1 1.17 1.71zm-19 55.31v-.14h.08s-.01.09-.03.13zm-18.05-2a2.36 2.36 0 0 0 .4.19 6.58 6.58 0 0 1 1.32 3.38 11.47 11.47 0 0 1-2-1.36 9.46 9.46 0 0 1-3.22-6.43 1.67 1.67 0 0 0 .7.41 2.1 2.1 0 0 1 1.51 2.19.1.1 0 0 0 .08.09 1.78 1.78 0 0 0 .09.25 2.52 2.52 0 0 0 1.16 1.3zm-1-3.56a1.48 1.48 0 0 0-.07-.15h.1c.06.05.06.11.05.17zm7.89-6l.08.09h-.13zm2.18.57a.09.09 0 0 0-.06-.1 2.1 2.1 0 0 1-1.64-2.09 1.69 1.69 0 0 0-.17-.79 9.46 9.46 0 0 1 5.18 5 11.42 11.42 0 0 1 .73 2.27 6.62 6.62 0 0 1-2.84-2.23 2.45 2.45 0 0 0-.07-.47 2.52 2.52 0 0 0-.85-1.35zm-75.85 11.4h.08v.14c0 .04-.06-.1-.08-.14zm7.75-9.5a2.41 2.41 0 0 0-.06.47 6.61 6.61 0 0 1-2.8 2.28 11.47 11.47 0 0 1 .69-2.29 9.46 9.46 0 0 1 5.08-5.06 1.69 1.69 0 0 0-.15.79 2.1 2.1 0 0 1-1.6 2.12.09.09 0 0 0-.06.1l-.21.16a2.52 2.52 0 0 0-.89 1.43zm3.21-2.13v.07h-.13zm8 5.86v-.17h.1a1.54 1.54 0 0 0-.1.22zm.12 2.35a1.77 1.77 0 0 0 .08-.25.09.09 0 0 0 .08-.09 2.1 2.1 0 0 1 1.46-2.21 1.67 1.67 0 0 0 .7-.42 9.46 9.46 0 0 1-3.1 6.49 11.41 11.41 0 0 1-1.93 1.4 6.59 6.59 0 0 1 1.33-3.48 2.37 2.37 0 0 0 .4-.2 2.51 2.51 0 0 0 .98-1.23zm-23-64.42a2.48 2.48 0 0 0-.46.09 6.6 6.6 0 0 1-3-1.95 11.46 11.46 0 0 1 2.38-.06 9.46 9.46 0 0 1 6.4 3.24 1.68 1.68 0 0 0-.8.1 2.1 2.1 0 0 1-2.52-.86.1.1 0 0 0-.14 0 1.69 1.69 0 0 0-.2-.16 2.52 2.52 0 0 0-1.71-.39zm3 2.38v.06l-.06-.1zm-2.91 9.35v.09h-.12zm-2.09.93a.09.09 0 0 0 .11 0 2.1 2.1 0 0 1 2.51.76 1.69 1.69 0 0 0 .6.53 9.46 9.46 0 0 1-7.11-.92 11.4 11.4 0 0 1-1.93-1.39 6.59 6.59 0 0 1 3.63.12 2.42 2.42 0 0 0 .32.32 2.51 2.51 0 0 0 1.48.58zM81.34 33a1.69 1.69 0 0 0-.33-.73 2.1 2.1 0 0 1 .08-2.66.1.1 0 0 0 0-.14 1.69 1.69 0 0 0 .09-.23 2.52 2.52 0 0 0-.34-2 6.61 6.61 0 0 1 1-3.48 11.36 11.36 0 0 1 .76 2.26A9.46 9.46 0 0 1 81.34 33zm.47-17.53l-.05-.13.11.07zm-2.15 15.77h-.08l.08-.09v.09zm-12-7.57a6.61 6.61 0 0 1 1 3.48 2.52 2.52 0 0 0-.34 2 1.67 1.67 0 0 0 .09.23.1.1 0 0 0 0 .14 2.1 2.1 0 0 1 .08 2.66 1.7 1.7 0 0 0-.33.73 9.47 9.47 0 0 1-1.22-7.07 11.37 11.37 0 0 1 .71-2.18zm2.14 7.57v-.11l.08.09zm-2.17-15.77l-.06-.06.11-.07zm56.72 53a2.33 2.33 0 0 0 .31-.32 6.58 6.58 0 0 1 3.63-.19 11.41 11.41 0 0 1-1.91 1.43 9.46 9.46 0 0 1-7.12 1.05 1.67 1.67 0 0 0 .61-.54 2.1 2.1 0 0 1 2.55-.75.09.09 0 0 0 .11 0h.26a2.52 2.52 0 0 0 1.56-.71zm-6.89-9.51v-.06h.1zm1.19-2a.1.1 0 0 0-.14 0 2.1 2.1 0 0 1-2.5.91 1.69 1.69 0 0 0-.8-.09 9.46 9.46 0 0 1 6.33-3.36 11.39 11.39 0 0 1 2.38 0 6.62 6.62 0 0 1-3 2 2.46 2.46 0 0 0-.47-.08 2.51 2.51 0 0 0-1.55.39 1.68 1.68 0 0 0-.25.27zm13.21-5.07h-.15v-.07zM98.54 16.33c5.51 1.36 9.76 4.43 14 7.93l-.64-.37c-.21-.12-.36.2-.16.33 5.44 3.33 10.5 6.57 13.94 12.06 2.24 3.58 5.89 9.56 4.94 14.35 0-2.61-1.29-5.69-2.32-7.54-1.92-3.45-5.71-5.8-9.17-7.43a29.31 29.31 0 0 0-11.48-2.83 29.88 29.88 0 0 0-6.46-10.48c-2.62-2.77-6-5.63-9.92-6.38-2.08-.4-5.42-.7-7.88.15 4.23-2.4 11.06-.8 15.15.21zm-28.47-5c.21-.92 1.18-1.24 1.91-1.73a5.63 5.63 0 0 0 .46 1.21c.06.18.12.37.17.55a6.35 6.35 0 0 1-.15 4.12.09.09 0 0 0 .16.09 6.18 6.18 0 0 0 .87-4.57 4.38 4.38 0 0 0-.2-1.73 3.48 3.48 0 0 1 .51-2.35 10.07 10.07 0 0 0 .75-3.13.38.38 0 0 0 .31-.08 10 10 0 0 0 .76 3.21 3.48 3.48 0 0 1 .51 2.35A4.39 4.39 0 0 0 76 11a6.18 6.18 0 0 0 .88 4.56.09.09 0 0 0 .12-.06 6.35 6.35 0 0 1-.15-4.12c0-.18.11-.37.17-.55a5.63 5.63 0 0 0 .46-1.21c.73.49 1.7.81 1.91 1.73.35 1.56-.71 3-.27 4.58a4.31 4.31 0 0 1 .67-2.07c.25.6.65 1.16.93 1.75a6.35 6.35 0 0 1 0 2.22 6 6 0 0 0-.86 3 .11.11 0 0 0 0 .09c.11.63.17 1.52-.53 1.87a5.73 5.73 0 0 0-.71.35 4.13 4.13 0 0 0-.88.82 6.08 6.08 0 0 0-.95 2.15c0 .11.13.15.17 0a5.73 5.73 0 0 1 1.16-2.22c.55-.48 1.15-.43 1.71-.79.84-.54.72-1.44.29-2.21a2.25 2.25 0 0 1 .24-1l.08.07c.07.54.3 1.06.45 1.8.4 2-1 3.2-2.23 4.6a.13.13 0 0 0 0 .05 7.12 7.12 0 0 0-1.33 2 10.8 10.8 0 0 0-.66 5.62c0 .1.17.11.16 0-.18-2.36.14-5 1.93-6.73.33-.32.65-.6.94-.87 0 1 .61 2 .06 3s-1.29 2.06-1 3.39c0 .17.29.1.26-.07a1.73 1.73 0 0 1 .16-1.07c.35.41.78.75.71 1.36a12.46 12.46 0 0 1-.36 1.39c0 .19-.09.38-.12.57s-.35.25-.53.37a3.44 3.44 0 0 0 .22-2.06c0-.09-.18-.07-.17 0a3.17 3.17 0 0 1-1.16 2.66l-.46.2a6.23 6.23 0 0 0 .82-2.25c.23-1.26-.51-2.78.19-4a7.4 7.4 0 0 0 1.19-2.27c0-.1-.13-.14-.15 0-.25 1-1.05 1.62-1.56 2.5a3.7 3.7 0 0 0-.24 1.87c.07 1.56-.15 3.32-1.42 4.34a7.73 7.73 0 0 0 .52-1.84h-.1a7.26 7.26 0 0 1-.79 1.65 3.26 3.26 0 0 1-.58.6c0-2.09.13-4.15.31-6.24.21-2.4.94-4.83.31-7.18a5.32 5.32 0 0 0-.91-1.21c-1.12-1.4.16-3.51.42-4.94.44-2.39-.28-5.18-.54-7.55 0-.21-.35-.21-.33 0 .3 3.49 1 6.69-.8 10-.46.86-.86 1.58-.32 2.51 2.16 3.69 1.12 10.17 1.3 14.62h-.24a3.26 3.26 0 0 1-.58-.6 7.26 7.26 0 0 1-.79-1.65h-.1a7.72 7.72 0 0 0 .52 1.84c-1.28-1-1.5-2.77-1.42-4.34a3.7 3.7 0 0 0-.24-1.87c-.51-.88-1.31-1.47-1.56-2.5 0-.1-.17-.06-.15 0a7.4 7.4 0 0 0 1.19 2.27c.7 1.18 0 2.7.19 4a6.23 6.23 0 0 0 .82 2.25l-.46-.2a3.17 3.17 0 0 1-1.16-2.66c0-.1-.14-.11-.17 0a3.44 3.44 0 0 0 .22 2.06c-.18-.12-.36-.24-.53-.37s-.07-.38-.12-.57a12.48 12.48 0 0 1-.36-1.39c-.08-.61.36-1 .71-1.36a1.73 1.73 0 0 1 .16 1.07c0 .17.22.24.26.07.32-1.33-.38-2.26-1-3.39s.1-2 .06-3c.29.27.61.54.94.87 1.79 1.75 2.11 4.37 1.93 6.73 0 .11.15.1.16 0a10.8 10.8 0 0 0-.66-5.62 7.12 7.12 0 0 0-1.33-2v-.05c-1.19-1.4-2.63-2.56-2.23-4.6.14-.74.38-1.25.45-1.8l-.04.03a2.25 2.25 0 0 1 .24 1c-.43.77-.55 1.67.29 2.21.56.36 1.16.3 1.71.79a5.73 5.73 0 0 1 1.16 2.22c0 .1.2.07.17 0a6.07 6.07 0 0 0-.95-2.22 4.13 4.13 0 0 0-.88-.82 5.74 5.74 0 0 0-.71-.35c-.7-.35-.64-1.24-.53-1.87a.11.11 0 0 0 0-.09 6 6 0 0 0-.86-3 6.35 6.35 0 0 1 0-2.22c.27-.59.67-1.15.93-1.75a4.31 4.31 0 0 1 .67 2.07c.44-1.62-.62-3.06-.27-4.63zM22.68 36.84c3-5.06 7.45-8.28 12.26-11.4l-.11.1c-.17.16.08.41.26.26 4.86-4.12 9.52-7.92 15.82-9.47 4.09-1 10.92-2.61 15.18-.2-2.46-.85-5.8-.55-7.88-.15-3.88.75-7.3 3.61-9.92 6.38A30 30 0 0 0 41.77 33c-4.79.4-8.07.93-12.55 3.14-3.42 1.69-7.16 4.12-9 7.6-1 1.87-2.27 5-2.18 7.58-1.04-4.82 2.47-10.87 4.64-14.48zm-5.75 15.73h-.15l.11-.09zm-7.4 10c-.82-.47-.84-1.49-1.09-2.33a5.67 5.67 0 0 0 1.3-.09h.57a6.35 6.35 0 0 1 3.9 1.36.09.09 0 0 0 .13-.12 6.17 6.17 0 0 0-4.12-2.18 4.32 4.32 0 0 0-1.69-.32c-.86 0-1.48-.68-2.09-1.18a10 10 0 0 0-2.77-1.64.38.38 0 0 0 0-.32A10 10 0 0 0 7 56a3.46 3.46 0 0 1 2.39.2 4.38 4.38 0 0 0 1.6.7 6.18 6.18 0 0 0 4.62.51.09.09 0 0 0 0-.18 6.35 6.35 0 0 1-4-1.07c-.16-.1-.32-.21-.48-.33a5.68 5.68 0 0 0-1-.8c.69-.55 1.28-1.39 2.22-1.31 1.6.13 2.66 1.57 4.29 1.61A4.3 4.3 0 0 1 14.79 54c.64-.07 1.3-.28 1.94-.37a6.34 6.34 0 0 1 2.13.65A6 6 0 0 0 21.47 56a.11.11 0 0 0 .08 0c.64.08 1.51.29 1.63 1.06a5.85 5.85 0 0 0 .13.78 4.06 4.06 0 0 0 .52 1.16 6.1 6.1 0 0 0 1.78 1.54c.1.06.18-.08.1-.15a5.76 5.76 0 0 1-1.78-1.76c-.3-.66-.07-1.23-.25-1.87-.27-1-1.16-1.1-2-.92a2.24 2.24 0 0 1-.84-.51l.09-.05c.54.09 1.1 0 1.85.1 2.07.22 2.75 1.94 3.74 3.49a7.13 7.13 0 0 0 1.54 1.87A10.79 10.79 0 0 0 33.23 63c.1 0 .15-.13 0-.16-2.23-.49-4.68-1.57-5.82-3.84-.21-.41-.38-.79-.55-1.15 1 .34 2.09 0 2.92.83s1.59 1.84 3 1.93c.18 0 .18-.25 0-.27a1.73 1.73 0 0 1-1-.46c.49-.22.94-.53 1.51-.28a12.71 12.71 0 0 1 1.22.75l.51.28c.08.2.14.41.2.62a3.43 3.43 0 0 0-1.9-.82c-.09 0-.12.15 0 .17a3.17 3.17 0 0 1 2.2 1.89c0 .17 0 .33.06.5a6.23 6.23 0 0 0-1.9-1.45c-1.14-.59-2.81-.33-3.73-1.35a7.4 7.4 0 0 0-1.82-1.8c-.09-.05-.17.08-.09.13.91.54 1.24 1.48 1.93 2.23a3.72 3.72 0 0 0 1.72.78c1.52.39 3.13 1.12 3.72 2.64a7.79 7.79 0 0 0-1.61-1 .05.05 0 0 0-.05.09 7.24 7.24 0 0 1 1.34 1.24 3.23 3.23 0 0 1 .4.73c-2-.62-3.93-1.33-5.88-2.12-2.23-.9-4.34-2.32-6.77-2.41a5.27 5.27 0 0 0-1.42.51c-1.67.66-3.3-1.18-4.6-1.85-2.16-1.12-5-1.26-7.37-1.7-.21 0-.31.27-.1.31 3.42.74 6.68 1 9.33 3.72.68.7 1.26 1.29 2.31 1 4.17-1 10 1.93 14.35 3.06l-.1.22a3.3 3.3 0 0 1-.75.38 7.41 7.41 0 0 1-1.81.27v.1a7.7 7.7 0 0 0 1.91.05c-1.35.92-3.09.61-4.57.08a3.72 3.72 0 0 0-1.86-.32c-1 .23-1.79.82-2.85.75a.08.08 0 0 0 0 .16 7.44 7.44 0 0 0 2.52-.47c1.33-.32 2.57.83 3.83 1a6.23 6.23 0 0 0 2.34-.03l-.33.38a3.18 3.18 0 0 1-2.88.32c-.09 0-.15.1-.07.15a3.42 3.42 0 0 0 2 .4c-.17.14-.34.28-.51.4l-.58-.05a12.33 12.33 0 0 1-1.43-.07c-.61-.11-.81-.62-1.1-1.08a1.75 1.75 0 0 1 1.08.17c.15.07.3-.14.14-.23-1.18-.69-2.28-.3-3.53-.07s-1.9-.69-2.89-1c.35-.2.7-.42 1.11-.64 2.19-1.19 4.8-.72 7 .14.1 0 .14-.11 0-.16a10.81 10.81 0 0 0-5.57-1 7.13 7.13 0 0 0-2.33.68h-.05c-1.69.73-3.22 1.76-5.06.78-.66-.36-1.09-.73-1.58-1a.37.37 0 0 0-.05-.1 2.28 2.28 0 0 1 1 .07c.61.64 1.44 1 2.2.38.5-.43.63-1 1.26-1.4a5.71 5.71 0 0 1 2.46-.45c.11 0 .12-.17 0-.18a6.07 6.07 0 0 0-2.34.27 4.09 4.09 0 0 0-1 .6 5.31 5.31 0 0 0-.55.57c-.54.57-1.38.25-1.95 0a.11.11 0 0 0-.09 0 6 6 0 0 0-3.12-.06 6.4 6.4 0 0 1-2.1-.65c-.49-.44-.93-1-1.43-1.41a4.33 4.33 0 0 1 2.19 0c-1.28-.92-2.98-.32-4.37-1.12zM12.64 66l.11.1h-.07s-.03-.03-.04-.1zm6.6 48.3c-3.71-4.29-5.4-9.26-6.82-14.56l.31.67c.1.21.41 0 .32-.17-2.51-5.86-4.76-11.43-4.39-17.91.24-4.21.72-11.21 4.28-14.56-1.54 2.1-2.24 5.38-2.47 7.49-.42 3.92 1.3 8 3.18 11.36a29.31 29.31 0 0 0 7.73 8.95 29.9 29.9 0 0 0-.79 12.28c.53 3.78 1.68 8.09 4.4 10.95 1.46 1.53 4 3.71 6.51 4.44-4.87-.47-9.5-5.72-12.27-8.91zm20.34 20.54c-.7.63-1.68.33-2.56.31a5.7 5.7 0 0 0 .32-1.26c.05-.18.11-.37.18-.54a6.36 6.36 0 0 1 2.48-3.26.09.09 0 0 0-.08-.16 6.17 6.17 0 0 0-3.35 3.21 4.34 4.34 0 0 0-.84 1.53c-.25.82-1.11 1.19-1.78 1.62a10 10 0 0 0-2.42 2.12.38.38 0 0 0-.3-.12 10 10 0 0 0 1.24-3.06c.18-.77.25-1.7.94-2.21a4.38 4.38 0 0 0 1.16-1.3 6.18 6.18 0 0 0 1.93-4.23.09.09 0 0 0-.18 0 6.34 6.34 0 0 1-2.26 3.45c-.15.12-.3.24-.46.35a5.59 5.59 0 0 0-1.08.72c-.31-.82-.92-1.65-.55-2.52.62-1.48 2.32-2 2.87-3.58a4.33 4.33 0 0 1-1.76 1.31c.14-.64.15-1.34.27-2a6.38 6.38 0 0 1 1.27-1.8 6 6 0 0 0 2.44-1.95.11.11 0 0 0 .07-.06c.27-.58.74-1.34 1.52-1.22a6 6 0 0 0 .78.12 4.12 4.12 0 0 0 1.19-.16 6.12 6.12 0 0 0 2-1.21c.09-.07 0-.2-.11-.14a5.75 5.75 0 0 1-2.21 1.2c-.72.08-1.19-.32-1.85-.35-1 0-1.41.76-1.51 1.64a2.25 2.25 0 0 1-.74.64.38.38 0 0 0 0-.1c.25-.48.36-1 .67-1.72.86-1.9 2.7-2 4.49-2.46a7.12 7.12 0 0 0 2.25-.87 10.79 10.79 0 0 0 3.79-4.2c0-.09-.08-.19-.13-.09-1.22 2-3 4-5.47 4.38-.46.07-.87.11-1.27.16.62-.81.66-2 1.71-2.51s2.25-.93 2.76-2.2c.07-.17-.18-.24-.25-.09a1.74 1.74 0 0 1-.75.79c0-.54-.21-1.07.21-1.52a12.72 12.72 0 0 1 1.09-.92c.14-.12.29-.26.42-.39s.43 0 .65 0a3.43 3.43 0 0 0-1.37 1.44c0 .09.1.17.15.08a3.17 3.17 0 0 1 2.48-1.5l.5.1a6.22 6.22 0 0 0-2 1.36c-.91.89-1.19 2.56-2.44 3.12a7.38 7.38 0 0 0-2.24 1.21c-.08.07 0 .19.1.12.8-.7 1.8-.72 2.72-1.14a3.71 3.71 0 0 0 1.28-1.39c.85-1.32 2-2.62 3.67-2.71a7.8 7.8 0 0 0-1.49 1.2.05.05 0 0 0 .06.08 7.26 7.26 0 0 1 1.6-.88 3.26 3.26 0 0 1 .82-.16c-1.21 1.7-2.5 3.32-3.85 4.92-1.55 1.83-3.56 3.4-4.4 5.67a5.34 5.34 0 0 0 0 1.51c.11 1.79-2.15 2.77-3.2 3.79-1.74 1.7-2.77 4.38-3.92 6.47-.1.18.16.38.27.19 1.77-3 3.07-6 6.45-7.7.88-.43 1.62-.79 1.71-1.87.37-4.26 5-8.94 7.4-12.67l.18.16a3.26 3.26 0 0 1 .12.83 7.39 7.39 0 0 1-.31 1.8h.09a7.71 7.71 0 0 0 .65-1.8c.45 1.57-.38 3.13-1.35 4.36a3.72 3.72 0 0 0-.88 1.67c-.09 1 .22 2-.17 2.94 0 .1.11.15.15.05a7.43 7.43 0 0 0 .34-2.54c.11-1.36 1.59-2.18 2.13-3.33a6.22 6.22 0 0 0 .63-2.31l.26.43a3.17 3.17 0 0 1-.6 2.84c-.07.07.05.18.12.11a3.42 3.42 0 0 0 1-1.81c.08.2.16.41.22.61s-.16.35-.23.53a12.26 12.26 0 0 1-.51 1.34c-.29.54-.84.57-1.37.7a1.74 1.74 0 0 1 .5-1c.12-.12 0-.33-.17-.21-1 .9-1 2.07-1.17 3.33s-1.25 1.59-1.81 2.44c-.08-.39-.18-.79-.27-1.25-.45-2.46.81-4.79 2.32-6.61.07-.08-.06-.17-.13-.1a10.81 10.81 0 0 0-2.71 5 7.17 7.17 0 0 0-.08 2.42v.05c.16 1.83.67 3.61-.84 5-.54.52-1 .81-1.4 1.21h-.1a2.25 2.25 0 0 1 .36-.91c.8-.38 1.41-1 1-2-.25-.61-.77-.92-.94-1.63a5.71 5.71 0 0 1 .34-2.48c0-.11-.13-.17-.17-.06a6.06 6.06 0 0 0-.47 2.3 4 4 0 0 0 .24 1.17 5.3 5.3 0 0 0 .37.7c.37.69-.19 1.39-.65 1.84a.12.12 0 0 0 0 .09 6 6 0 0 0-1 2.95 6.39 6.39 0 0 1-1.27 1.79c-.57.33-1.23.57-1.79.92A4.33 4.33 0 0 1 42 131c-1.27 1-1.23 2.79-2.43 3.87zm4.24-1.84l.13-.08v.08zm47.94 8.84c-5.24 2.18-10.48 2.24-16 1.93l.74-.08c.23 0 .17-.38-.06-.36-6.35.55-12.34 1-18.38-1.43-3.92-1.55-10.42-4.19-12.49-8.61 1.51 2.12 4.41 3.81 6.34 4.69 3.6 1.63 8 1.28 11.79.53a29.3 29.3 0 0 0 10.92-4.55 29.91 29.91 0 0 0 11.42 4.59c3.76.67 8.21.94 11.77-.76 1.91-.91 4.78-2.65 6.25-4.8-1.96 4.45-8.41 7.21-12.3 8.84zm14-9.24l.13.07h-.14zm12.75 5.06a.38.38 0 0 0-.21.25 10 10 0 0 0-2.52-2.13c-.68-.41-1.54-.77-1.81-1.58a4.36 4.36 0 0 0-.87-1.51 6.17 6.17 0 0 0-3.41-3.15.09.09 0 0 0-.07.17 6.35 6.35 0 0 1 2.57 3.23c.07.18.13.36.19.55a5.63 5.63 0 0 0 .35 1.25c-.88 0-1.85.36-2.56-.26-1.21-1-1.21-2.84-2.5-3.85a4.33 4.33 0 0 1 .69 2.08c-.57-.34-1.23-.56-1.8-.88a6.37 6.37 0 0 1-1.31-1.77 6 6 0 0 0-1.09-2.93.11.11 0 0 0 0-.09c-.47-.44-1-1.12-.69-1.82a5.74 5.74 0 0 0 .36-.7 4.15 4.15 0 0 0 .22-1.18 6.12 6.12 0 0 0-.52-2.3c0-.11-.19 0-.16.06a5.75 5.75 0 0 1 .39 2.47c-.15.71-.67 1-.91 1.65-.35.93.28 1.58 1.08 1.95a2.24 2.24 0 0 1 .37.9h-.1c-.38-.39-.87-.67-1.43-1.18-1.54-1.41-1.06-3.19-.94-5v-.05a7.13 7.13 0 0 0-.13-2.42 10.79 10.79 0 0 0-2.8-4.92c-.07-.08-.2 0-.13.1 1.54 1.8 2.85 4.1 2.45 6.57-.07.46-.17.86-.24 1.25-.58-.85-1.67-1.24-1.85-2.41s-.18-2.42-1.23-3.31c-.14-.12-.29.09-.17.21a1.74 1.74 0 0 1 .51 1c-.53-.12-1.08-.13-1.38-.67a12.61 12.61 0 0 1-.54-1.33c-.07-.18-.15-.35-.24-.53s.13-.41.21-.62a3.43 3.43 0 0 0 1 1.79c.07.06.19 0 .12-.12a3.17 3.17 0 0 1-.65-2.83q.12-.22.25-.44a6.21 6.21 0 0 0 .67 2.29c.56 1.15 2.06 1.93 2.2 3.3a7.37 7.37 0 0 0 .39 2.53c0 .09.19 0 .15-.06-.41-1-.12-1.93-.23-2.94a3.71 3.71 0 0 0-.92-1.65c-1-1.22-1.85-2.76-1.43-4.33a7.75 7.75 0 0 0 .66 1.7h.09a7.31 7.31 0 0 1-.34-1.8 3.28 3.28 0 0 1 .11-.83c1.24 1.68 2.37 3.42 3.46 5.2 1.26 2.05 2.11 4.44 4 6a5.32 5.32 0 0 0 1.45.44c1.74.46 2 2.91 2.6 4.22 1.07 2.18 3.3 4 4.92 5.75.14.15.41 0 .27-.19-2.31-2.63-4.77-4.8-5.3-8.53-.14-1-.25-1.79-1.24-2.21-3.93-1.69-6.94-7.52-9.73-11l.21-.12a3.25 3.25 0 0 1 .82.14 7.38 7.38 0 0 1 1.62.85l.06-.08a7.73 7.73 0 0 0-1.51-1.18c1.63.06 2.85 1.34 3.72 2.64a3.72 3.72 0 0 0 1.31 1.36c.93.4 1.93.4 2.74 1.08.08.07.17-.06.1-.12a7.42 7.42 0 0 0-2.3-1.12c-1.26-.53-1.57-2.19-2.5-3.07a6.23 6.23 0 0 0-2-1.32l.49-.11a3.17 3.17 0 0 1 2.51 1.45c0 .08.18 0 .15-.08a3.43 3.43 0 0 0-1.4-1.53h.65c.22 0 .29.26.43.39a12.38 12.38 0 0 1 1.11.9c.43.45.28 1 .24 1.52a1.74 1.74 0 0 1-.76-.77c-.08-.15-.32-.07-.25.1.54 1.26 1.65 1.59 2.8 2.15s1.12 1.68 1.76 2.48c-.4 0-.81-.07-1.27-.14-2.47-.34-4.29-2.27-5.55-4.27-.06-.09-.18 0-.13.1a10.8 10.8 0 0 0 3.87 4.13 7.12 7.12 0 0 0 2.27.83c1.79.42 3.64.49 4.53 2.38.32.68.44 1.23.71 1.71a.44.44 0 0 0 0 .1 2.25 2.25 0 0 1-.76-.63c-.11-.88-.55-1.67-1.54-1.61-.66 0-1.12.45-1.84.38a5.73 5.73 0 0 1-2.25-1.1c-.09-.06-.2.07-.11.14a6.07 6.07 0 0 0 2 1.17 4.1 4.1 0 0 0 1.19.14 5.48 5.48 0 0 0 .78-.13c.77-.13 1.25.62 1.54 1.19a.11.11 0 0 0 .07.06 6 6 0 0 0 2.48 1.9 6.42 6.42 0 0 1 1.3 1.77c.14.65.16 1.35.31 2a4.33 4.33 0 0 1-1.78-1.27c.58 1.53 2.29 2.05 2.94 3.52.38.86-.21 1.7-.51 2.53a5.65 5.65 0 0 0-1.09-.7c-.16-.11-.32-.22-.46-.34a6.35 6.35 0 0 1-2.33-3.41.09.09 0 0 0-.18 0 6.17 6.17 0 0 0 2 4.19 4.37 4.37 0 0 0 1.19 1.28c.7.5.79 1.42 1 2.19a10 10 0 0 0 1.32 2.93zm22.07-56.12c.43 5.65-1.15 10.65-3.16 15.77l.15-.72c0-.23-.31-.28-.36-.05-1.46 6.2-3 12-7.1 17-2.7 3.24-7.23 8.58-12.09 9.17 2.49-.77 5-3 6.43-4.56 2.67-2.91 3.73-7.24 4.19-11a29.31 29.31 0 0 0-.9-11.79 29.88 29.88 0 0 0 7.93-9.41c1.82-3.36 3.46-7.5 3-11.42-.27-2.1-1-5.37-2.61-7.44 3.56 3.26 4.18 10.24 4.5 14.44zm-4.41-16.16l.11-.1v.14zm6.16-8.53c-.6.51-1.21 1.22-2.07 1.22a4.38 4.38 0 0 0-1.68.35 6.17 6.17 0 0 0-4.08 2.26c-.08.09.05.2.14.12a6.35 6.35 0 0 1 3.87-1.43h.58a5.64 5.64 0 0 0 1.3.06c-.24.85-.24 1.87-1 2.35-1.38.82-3.08.26-4.44 1.17a4.33 4.33 0 0 1 2.19 0c-.5.43-.92 1-1.4 1.44a6.38 6.38 0 0 1-2.09.69 6 6 0 0 0-3.12.12.11.11 0 0 0-.09 0c-.57.3-1.39.64-1.95.08a5.8 5.8 0 0 0-.56-.56 4.15 4.15 0 0 0-1-.58 6.11 6.11 0 0 0-2.34-.23c-.12 0-.1.17 0 .18a5.74 5.74 0 0 1 2.47.4c.63.37.77 1 1.28 1.38.77.63 1.59.23 2.19-.42a2.26 2.26 0 0 1 1-.08.38.38 0 0 0-.05.1c-.49.24-.91.62-1.57 1-1.82 1-3.37 0-5.07-.68h-.06a7.14 7.14 0 0 0-2.33-.64 10.8 10.8 0 0 0-5.54 1.13c-.09 0 0 .2.05.16 2.19-.91 4.79-1.42 7-.27.42.22.77.43 1.13.62-1 .28-1.71 1.2-2.87 1s-2.36-.58-3.53.13c-.15.09 0 .3.15.22a1.74 1.74 0 0 1 1.07-.19c-.28.46-.47 1-1.08 1.1a12.48 12.48 0 0 1-1.43.09l-.58.07c-.18-.12-.35-.26-.52-.39a3.43 3.43 0 0 0 2-.43c.08 0 0-.19-.07-.15a3.17 3.17 0 0 1-2.89-.27l-.34-.38a6.22 6.22 0 0 0 2.39.08c1.27-.18 2.48-1.36 3.82-1.06a7.38 7.38 0 0 0 2.52.42c.1 0 .09-.17 0-.16-1.06.08-1.87-.49-2.86-.7a3.7 3.7 0 0 0-1.85.36c-1.46.56-3.2.9-4.57 0a7.72 7.72 0 0 0 1.91-.09v-.1a7.26 7.26 0 0 1-1.81-.24 3.25 3.25 0 0 1-.75-.36c2-.65 4-1.18 6-1.66 2.34-.55 4.88-.62 6.91-2a5.27 5.27 0 0 0 .87-1.24c1-1.5 3.38-.95 4.82-1.15 2.41-.33 4.83-1.88 7-2.88.19-.09.09-.4-.1-.31-3.22 1.37-6 3-9.76 2.37-1-.17-1.77-.32-2.49.48-2.83 3.21-9.31 4.24-13.48 5.8v-.24a3.25 3.25 0 0 1 .39-.74 7.34 7.34 0 0 1 1.32-1.27l-.05-.08a7.7 7.7 0 0 0-1.59 1.07c.57-1.53 2.17-2.29 3.67-2.71a3.71 3.71 0 0 0 1.7-.81c.67-.76 1-1.7 1.89-2.26.09-.05 0-.18-.09-.13a7.41 7.41 0 0 0-1.78 1.84c-.9 1-2.57.81-3.7 1.41a6.22 6.22 0 0 0-1.88 1.48v-.5a3.17 3.17 0 0 1 2.17-1.93c.1 0 .06-.17 0-.16a3.43 3.43 0 0 0-1.89.86c.06-.21.12-.42.19-.62l.5-.29a12.54 12.54 0 0 1 1.21-.77c.56-.26 1 0 1.51.25a1.73 1.73 0 0 1-1 .48c-.17 0-.16.28 0 .27 1.36-.12 2-1.07 2.92-2s1.94-.54 2.9-.89c-.17.36-.32.75-.53 1.16-1.1 2.24-3.5 3.37-5.79 3.94-.1 0 0 .18.05.16a10.8 10.8 0 0 0 5.13-2.39 7.13 7.13 0 0 0 1.5-1.9c1-1.57 1.61-3.3 3.68-3.56.75-.09 1.31 0 1.85-.14l.09.05a2.25 2.25 0 0 1-.83.52c-.87-.17-1.76 0-2 1-.17.64.07 1.2-.21 1.87a5.73 5.73 0 0 1-1.75 1.79c-.08.07 0 .21.1.15a6.06 6.06 0 0 0 1.75-1.57 4.1 4.1 0 0 0 .5-1.09 5.65 5.65 0 0 0 .12-.78c.11-.78 1-1 1.61-1.09a5.9 5.9 0 0 0 2.62-1.77 6.36 6.36 0 0 1 2.11-.69c.65.07 1.31.28 2 .33a4.31 4.31 0 0 1-1.76 1.29c1.63-.07 2.67-1.54 4.26-1.69.94-.09 1.54.73 2.24 1.27a5.63 5.63 0 0 0-1 .82c-.16.12-.31.23-.47.34a6.35 6.35 0 0 1-4 1.15.09.09 0 0 0 0 .18 6.18 6.18 0 0 0 4.61-.6 4.36 4.36 0 0 0 1.58-.73 3.48 3.48 0 0 1 2.39-.25 10 10 0 0 0 3.21-.26.38.38 0 0 0 .17.27 10 10 0 0 0-2.88 1.65z" fill="#0d465b"/><path class="cls-1" d="M105.55 117.19c-.08-.09-.23 0-.15.11a2.45 2.45 0 0 0 .84.67c.07 0 .14-.08.07-.12a2.82 2.82 0 0 1-.76-.66z" fill="#0d465b"/><path class="cls-1" d="M104.1 115.95c-.1-.06-.21.08-.11.14s.31.26.48.37.22-.08.12-.15-.32-.25-.49-.36z" fill="#0d465b"/><path class="cls-1" d="M114.12 124.72c-.55-.53-.71-1.41-1.38-1.81s-1.23-.29-1.8-.6c-.07 0-.13.07-.07.12a3.05 3.05 0 0 0 1.49.55c.84.17 1.1 1.32 1.68 1.85.06.05.14-.05.08-.11z" fill="#0d465b"/><path class="cls-1" d="M102.49 119.45a2.79 2.79 0 0 1 .4.92c0 .08.15 0 .14 0a2.42 2.42 0 0 0-.39-1c-.07-.13-.22-.02-.15.08z" fill="#0d465b"/><path class="cls-1" d="M101.72 117.7c.06.2.15.37.21.57s.21 0 .17-.07-.16-.37-.21-.57-.2-.04-.17.07z" fill="#0d465b"/><path class="cls-1" d="M106 127.67a3 3 0 0 0-.08-1.59c0-.07-.15 0-.13 0 .13.63-.1 1.29 0 1.9.19.76 1 1.17 1.32 1.86 0 .08.16 0 .13 0-.3-.74-1.32-1.32-1.24-2.17z" fill="#0d465b"/><path class="cls-1" d="M46.56 120.65a2.85 2.85 0 0 1 .39-.93c.07-.1-.09-.21-.15-.11a2.44 2.44 0 0 0-.37 1c-.02.09.11.12.13.04z" fill="#0d465b"/><path class="cls-1" d="M47.47 118.53c.05-.2.14-.38.2-.57s-.14-.18-.17-.06-.15.38-.2.57.14.18.17.06z" fill="#0d465b"/><path class="cls-1" d="M42.48 130.22c.33-.69 1.11-1.12 1.28-1.88.14-.61-.1-1.26 0-1.9 0-.08-.11-.1-.14 0a3.05 3.05 0 0 0 0 1.59c.1.85-.91 1.46-1.24 2.17-.07.05.06.09.1.02z" fill="#0d465b"/><path class="cls-1" d="M44 117.63c.08-.1-.08-.2-.15-.11a2.81 2.81 0 0 1-.75.67c-.07 0 0 .16.07.12a2.42 2.42 0 0 0 .83-.68z" fill="#0d465b"/><path class="cls-1" d="M44.91 116.77c.17-.12.3-.26.47-.38s0-.21-.12-.14-.31.26-.47.38.02.21.12.14z" fill="#0d465b"/><path class="cls-1" d="M37.14 123.43a3 3 0 0 0 1.48-.57c.06-.05 0-.16-.07-.12-.56.32-1.26.31-1.79.64s-.81 1.3-1.35 1.83c-.06.06 0 .16.08.1.57-.54.81-1.7 1.65-1.88z" fill="#0d465b"/><path class="cls-1" d="M26.22 64.84c.12 0 .17-.15.06-.18a2.45 2.45 0 0 0-1.07 0c-.08 0-.07.15 0 .14a2.85 2.85 0 0 1 1.01.04z" fill="#0d465b"/><path class="cls-1" d="M27.51 65h.61c.21 0 .12-.19 0-.18s-.4 0-.61 0-.12.18 0 .18z" fill="#0d465b"/><path class="cls-1" d="M17 64.51c.62-.06 1.17-.49 1.8-.58.08 0 .06-.13 0-.14a3 3 0 0 0-1.52.45c-.77.37-1.67-.41-2.45-.49-.09 0-.09.12 0 .13.78.12 1.43.71 2.17.63z" fill="#0d465b"/><path class="cls-1" d="M27.29 61.39c.11 0 .17-.14.06-.18a2.79 2.79 0 0 1-.87-.5c-.06 0-.15.05-.09.11a2.43 2.43 0 0 0 .9.57z" fill="#0d465b"/><path class="cls-1" d="M28.89 62.31c.1.07.19-.08.1-.15s-.35-.21-.51-.33-.2.09-.1.16.35.2.51.32z" fill="#0d465b"/><path class="cls-1" d="M19.63 56.69a3 3 0 0 0 1 1.23c.07 0 .15-.05.09-.11-.48-.43-.68-1.1-1.16-1.5s-1.48-.36-2.16-.71c-.08 0-.15.07-.07.11.67.38 1.87.29 2.3.98z" fill="#0d465b"/><path class="cls-1" d="M57.64 56.37c0 .05.12 0 .08-.06a1.32 1.32 0 0 0-.46-.37s-.08 0 0 .07a1.57 1.57 0 0 1 .38.36z" fill="#0d465b"/><path class="cls-1" d="M58.43 57.06c.05 0 .12 0 .06-.08s-.17-.14-.26-.21-.12 0-.06.08z" fill="#0d465b"/><path class="cls-1" d="M52.94 52.18c.3.29.39.78.76 1s.68.17 1 .34c0 0 .07 0 0-.07a1.68 1.68 0 0 0-.82-.31c-.46-.1-.6-.73-.92-1 .04-.05-.05.01-.02.04z" fill="#0d465b"/><path class="cls-1" d="M59.34 55.13a1.58 1.58 0 0 1-.22-.51h-.07a1.33 1.33 0 0 0 .21.55c.03.08.11.02.08-.04z" fill="#0d465b"/><path class="cls-1" d="M59.75 56.1c0-.11-.08-.21-.11-.31s-.12 0-.1 0 .08.21.12.31.11.06.09 0z" fill="#0d465b"/><path class="cls-1" d="M57.47 51.47h.08c-.07-.35.06-.71 0-1s-.54-.65-.72-1h-.07c.18.39.75.72.69 1.19a1.7 1.7 0 0 0 .02.81z" fill="#0d465b"/><path class="cls-1" d="M90.18 54.71a1.54 1.54 0 0 1-.22.51c0 .06 0 .12.08.06a1.34 1.34 0 0 0 .21-.56s-.06-.06-.07-.01z" fill="#0d465b"/><path class="cls-1" d="M89.67 55.87c0 .11-.08.21-.11.32s.08.1.09 0 .08-.21.12-.31-.08-.07-.1-.01z" fill="#0d465b"/><path class="cls-1" d="M92.48 49.45c-.18.38-.62.61-.72 1s.05.7 0 1c0 0 .06.06.08 0a1.69 1.69 0 0 0 0-.88c-.05-.47.51-.8.69-1.19.04.05-.03.02-.05.07z" fill="#0d465b"/><path class="cls-1" d="M91.59 56.38c0 .05 0 .11.08.06a1.53 1.53 0 0 1 .42-.37V56a1.33 1.33 0 0 0-.5.38z" fill="#0d465b"/><path class="cls-1" d="M90.82 57.06c-.05 0 0 .11.06.08s.17-.14.26-.21 0-.12-.07-.08z" fill="#0d465b"/><path class="cls-1" d="M95.39 53.21a1.68 1.68 0 0 0-.82.31v.07c.31-.17.69-.16 1-.34s.45-.71.75-1v-.06c-.32.29-.47.93-.93 1.02z" fill="#0d465b"/><path class="cls-1" d="M101.17 85.57c-.06 0-.1.08 0 .1a1.34 1.34 0 0 0 .59 0v-.08a1.56 1.56 0 0 1-.59-.02z" fill="#0d465b"/><path class="cls-1" d="M100.12 85.48c-.06 0-.07.1 0 .1h.34c.07 0 .07-.11 0-.1z" fill="#0d465b"/><path class="cls-1" d="M106.23 85.79c-.34 0-.65.27-1 .31v.08a1.68 1.68 0 0 0 .84-.24c.43-.2.92.23 1.35.28v-.07c-.42-.06-.76-.4-1.19-.36z" fill="#0d465b"/><path class="cls-1" d="M100.53 87.57a1.56 1.56 0 0 1 .48.28s.08 0 .05-.06a1.34 1.34 0 0 0-.5-.32c-.06-.03-.09.07-.03.1z" fill="#0d465b"/><path class="cls-1" d="M99.68 86.95c-.05 0-.11 0-.05.08l.28.19c.05 0 .11 0 .06-.09z" fill="#0d465b"/><path class="cls-1" d="M104.77 90.09a1.68 1.68 0 0 0-.55-.68s-.08 0-.05.06c.26.24.37.61.63.83s.82.21 1.19.4c0 0 .08 0 0-.06-.34-.21-.99-.14-1.22-.55z" fill="#0d465b"/><path class="cls-1" d="M114.48 90.55a7.81 7.81 0 0 1-1.38-.87c-.4-.34-.7-.79-1.11-1.1a2 2 0 0 0-.37-.2 3.15 3.15 0 0 0-.74-1.81 1.22 1.22 0 0 0-.94-.4 1.12 1.12 0 0 0-.3-.32 3.47 3.47 0 0 1-.35-.39A2.23 2.23 0 0 1 109 85l-.1-.23c1.56-1.11 2.23-4.15 2.46-5.65.64-4.31-.33-7.81-2-11.59-1-4.66-2.23-8.49-5.69-11.94-1.07-1.07-3.42-3.1-5.34-3.06l-.06-.24a2.23 2.23 0 0 1-.06-.55 3.71 3.71 0 0 1 0-.52 1.06 1.06 0 0 0 0-.43 1.22 1.22 0 0 0 .52-.88 3.2 3.2 0 0 0-.48-1.91 1.94 1.94 0 0 0 .16-.36c.15-.5.12-1 .24-1.55a7.76 7.76 0 0 1 .58-1.52 1.28 1.28 0 0 0 .08-.37c.12-.24.22-.49.34-.71s-.14-.22-.23-.12a8.09 8.09 0 0 0-.69.85 7.8 7.8 0 0 1-1.26 1c-.45.27-1 .42-1.39.72a1.91 1.91 0 0 0-.31.29 3.15 3.15 0 0 0-1.95.13 1.21 1.21 0 0 0-.67.77 1.1 1.1 0 0 0-.4.18 3.31 3.31 0 0 1-.48.21 2.18 2.18 0 0 1-.54.12h-.25c-.57-1.83-3.25-3.42-4.6-4.1-3.9-2-7.52-2.12-11.62-1.77-4.74-.5-8.76-.54-13.12 1.68-1.35.68-4 2.28-4.58 4.11h-.25a2.25 2.25 0 0 1-.54-.11 3.63 3.63 0 0 1-.48-.2A1.09 1.09 0 0 0 56 47a1.22 1.22 0 0 0-.68-.77 3.15 3.15 0 0 0-1.94-.12 2 2 0 0 0-.31-.28c-.43-.3-.95-.44-1.4-.71a7.81 7.81 0 0 1-1.27-1 1.23 1.23 0 0 0-.33-.19c-.19-.19-.4-.36-.57-.55s-.25.06-.18.18a8 8 0 0 0 .58.92 7.69 7.69 0 0 1 .58 1.52c.12.51.09 1 .24 1.55a2 2 0 0 0 .16.36 3.21 3.21 0 0 0-.47 1.91 1.22 1.22 0 0 0 .52.88 1.06 1.06 0 0 0 0 .43 3.86 3.86 0 0 1 0 .52 2.21 2.21 0 0 1-.06.55l-.06.24c-1.92 0-4.26 2-5.33 3.08-3.2 3.21-4.47 6.76-5.42 11a.08.08 0 0 0-.07.05c-1.9 4.43-3.15 8.28-2.31 13.14.26 1.49 1 4.51 2.58 5.59l-.09.23A2.2 2.2 0 0 1 40 86a3.29 3.29 0 0 1-.34.4 1.12 1.12 0 0 0-.29.32 1.21 1.21 0 0 0-.93.42 3.15 3.15 0 0 0-.69 1.86 2 2 0 0 0-.36.21c-.41.32-.7.78-1.09 1.12a7.73 7.73 0 0 1-1.35.91 1.26 1.26 0 0 0-.28.26l-.69.39c-.14.07 0 .26.11.23a7.91 7.91 0 0 0 1-.29 7.71 7.71 0 0 1 1.63-.11c.52 0 1 .22 1.55.22a2 2 0 0 0 .39-.05 3.2 3.2 0 0 0 1.69 1 1.22 1.22 0 0 0 1-.24 1.1 1.1 0 0 0 .43.08 3.32 3.32 0 0 1 .51.11 2.17 2.17 0 0 1 .51.22l.21.13c-.6 1.82.67 4.67 1.38 6 2 3.85 4.91 6.08 8.46 8.17 3.58 3.15 6.83 5.5 11.67 6.22 1.49.22 4.6.46 6.12-.71l.19.16a2.22 2.22 0 0 1 .38.41 3.49 3.49 0 0 1 .27.45 1.07 1.07 0 0 0 .22.38 1.21 1.21 0 0 0 .11 1 3.21 3.21 0 0 0 1.52 1.25 2 2 0 0 0 .08.39c.18.49.52.91.73 1.39a7.8 7.8 0 0 1 .44 1.57 1.26 1.26 0 0 0 .16.35c0 .26.11.53.15.78s.24.09.25 0a7.93 7.93 0 0 0 .06-1.1 8 8 0 0 1 .4-1.58c.2-.48.53-.91.7-1.4a2 2 0 0 0 .08-.39 3.2 3.2 0 0 0 1.49-1.28 1.22 1.22 0 0 0 .08-1 1.13 1.13 0 0 0 .21-.38 3.45 3.45 0 0 1 .26-.45 2.2 2.2 0 0 1 .37-.42l.19-.16c1.55 1.14 4.64.82 6.13.57 4.3-.74 7.31-2.76 10.4-5.48 4.11-2.41 7.36-4.77 9.56-9.14.68-1.35 1.88-4.22 1.24-6l.21-.13a2.09 2.09 0 0 1 .5-.23 3.5 3.5 0 0 1 .51-.12 1.09 1.09 0 0 0 .43-.09 1.22 1.22 0 0 0 1 .22 3.2 3.2 0 0 0 1.66-1.05 2 2 0 0 0 .39 0c.52 0 1-.21 1.54-.26a7.73 7.73 0 0 1 1.63.07 1.26 1.26 0 0 0 .38 0l.78.1c.16 0 .16-.2 0-.25a7.91 7.91 0 0 0-.86-.5zM108.66 85l-.06-.05zm-15.72 17.16c-.11.22-.21.45-.32.67l-.44.07c-.12 0-.1.22 0 .21h.31a12.63 12.63 0 0 1-1.78 3.24c-.25.3-.52.59-.79.88a14 14 0 0 0 1.87-3.52c0-.05-.06-.07-.08 0a13.44 13.44 0 0 1-2.63 4.24 26.67 26.67 0 0 0 2-3.66c0-.09-.09-.16-.13-.07a23 23 0 0 1-2.68 4.33 11.18 11.18 0 0 1-1.47 1.44l-.31.23-.15.09a23.29 23.29 0 0 0 3.72-5.46.05.05 0 0 0-.09-.05c-1.45 2.3-2.79 4.67-5 6.21-.34.15-.7.29-1.07.42a16 16 0 0 0 4.83-5.58c.05-.09-.08-.17-.14-.08-1.57 2.6-3.5 5-6.36 6.11l-.4.05c2.24-.77 4.06-3.19 5.32-5-1.63 2.27-3.64 4.4-6.46 5a3.14 3.14 0 0 1-1-.27 4 4 0 0 0 1.24-.3 15.36 15.36 0 0 0 5.07-3.8s0-.09-.06-.06a18.55 18.55 0 0 1-2.83 2.5c-.77.51-3.46 1.9-4.34.81a2.29 2.29 0 0 0 .64.1c1.53 0 3-1.31 4.19-2.13-.67.45-1.35.89-2.06 1.28a7.72 7.72 0 0 1-1.27.54c-.41.14-1.29.3-1.68-.1v-.08-.28a7.1 7.1 0 0 0 2.83-.65v-.07c-.38.17-2.25.86-2.76.53.31-1.21 1.35-2.55 1.63-3.59a5.32 5.32 0 0 0-.58-3.58 5 5 0 0 0-2.35-2.32h.2a3.76 3.76 0 0 1 3 2.78c0 .07.12 0 .11 0a4.16 4.16 0 0 0-2.41-2.9 5.74 5.74 0 0 0-2.26-.56 3.51 3.51 0 0 0-2.48 0 5.73 5.73 0 0 0-2.22.63 4.16 4.16 0 0 0-2.34 3c0 .07.09.1.11 0a3.76 3.76 0 0 1 2.93-2.84h.2a5 5 0 0 0-2.3 2.37 5.33 5.33 0 0 0-.5 3.59c.29 1 1.37 2.35 1.71 3.56-.51.34-2.39-.31-2.77-.47 0 0-.09.05 0 .07a7.11 7.11 0 0 0 2.84.59 2.5 2.5 0 0 1 0 .27v.08c-.38.4-1.27.26-1.68.13a7.77 7.77 0 0 1-1.28-.51c-.72-.38-1.41-.8-2.09-1.24 1.17.8 2.71 2.1 4.24 2a2.27 2.27 0 0 0 .64-.11c-.86 1.12-3.58-.21-4.36-.7a18.57 18.57 0 0 1-2.88-2.46s-.09 0-.06.06a15.32 15.32 0 0 0 5.2 3.64 4 4 0 0 0 1.24.28 3.1 3.1 0 0 1-1 .3c-2.83-.54-4.89-2.63-6.57-4.86 0 0-.05 0 0 0 1.29 1.74 3.17 4.12 5.43 4.83h-.4c-2.89-1-4.87-3.4-6.51-6a.08.08 0 0 0-.14.08 16.08 16.08 0 0 0 5 5.47c-.37-.12-.73-.25-1.08-.39-2.26-1.49-3.66-3.83-5.16-6.1a.05.05 0 0 0-.09.06 23.29 23.29 0 0 0 3.84 5.37l-.15-.08-.32-.23a11.18 11.18 0 0 1-1.5-1.4 22.94 22.94 0 0 1-2.78-4.27c0-.08-.17 0-.13.08a26.63 26.63 0 0 0 2.1 3.61 13.42 13.42 0 0 1-2.72-4.17h-.08a14 14 0 0 0 2 3.47c-.28-.28-.56-.57-.82-.86a13.86 13.86 0 0 1-2-3.45h.6c.12 0 .13-.19 0-.21l-.74-.09-.2-.4c-.06-.11-.24 0-.19.08l.12.29a12.59 12.59 0 0 1-3.63-.67c-.36-.14-.72-.31-1.09-.48a14 14 0 0 0 3.93.68c.05 0 0-.08 0-.08a13.42 13.42 0 0 1-4.85-1.17A26.63 26.63 0 0 0 55 102c.1 0 .13-.13 0-.15a22.93 22.93 0 0 1-5-1.19 11.18 11.18 0 0 1-1.83-.95l-.31-.22-.13-.11a23.3 23.3 0 0 0 6.35 1.83.06.06 0 0 0 0-.11c-2.64-.66-5.31-1.19-7.47-2.82-.26-.28-.5-.59-.74-.9a16 16 0 0 0 6.83 2.86.08.08 0 0 0 0-.16c-3-.68-5.87-1.77-7.8-4.15-.06-.12-.11-.24-.17-.35 1.43 1.89 4.3 2.86 6.37 3.5-2.66-.84-5.32-2.09-6.78-4.57a3.15 3.15 0 0 1-.07-1.08 4.06 4.06 0 0 0 .75 1.03 15.38 15.38 0 0 0 5.17 3.69v-.07A18.59 18.59 0 0 1 47 96.19c-.72-.57-2.89-2.69-2.12-3.87a2.29 2.29 0 0 0 .1.64c.45 1.46 2.19 2.48 3.34 3.31-.64-.5-1.27-1-1.87-1.56a8 8 0 0 1-.91-1c-.26-.35-.69-1.13-.44-1.63l.07-.06h.27a7.09 7.09 0 0 0 1.51 2.48s.09 0 .05-.06c-.28-.31-1.52-1.86-1.37-2.45 1.25-.08 2.84.49 3.92.42a5.31 5.31 0 0 0 3.22-1.67 5 5 0 0 0 1.47-3v.2a3.76 3.76 0 0 1-1.71 3.69c-.06 0 0 .13.06.09a4.16 4.16 0 0 0 2-3.19 5.75 5.75 0 0 0-.14-2.29 3.49 3.49 0 0 0-.8-2.34 5.71 5.71 0 0 0-1.29-1.91 4.16 4.16 0 0 0-3.54-1.3c-.07 0-.07.12 0 .11a3.76 3.76 0 0 1 3.61 1.88c0 .06.06.12.09.18a5 5 0 0 0-3-1.44A5.34 5.34 0 0 0 46 82c-.9.61-1.81 2-2.84 2.73-.48-.38-.45-2.36-.42-2.78 0-.05-.08-.07-.08 0a7.08 7.08 0 0 0 .34 2.91l-.24.13h-.09c-.5-.24-.65-1.12-.65-1.55a7.47 7.47 0 0 1 .09-1.38c.13-.8.32-1.59.52-2.37-.39 1.36-1.15 3.23-.61 4.66a2.26 2.26 0 0 0 .31.57c-1.33-.47-.91-3.47-.69-4.36A18.54 18.54 0 0 1 43.05 77H43a15.33 15.33 0 0 0-1.83 6.08 4 4 0 0 0 .13 1.27 3.13 3.13 0 0 1-.61-.9c-.37-2.85 1-5.46 2.56-7.76 0 0 0-.05 0 0-1.25 1.78-2.92 4.3-2.89 6.67 0-.13-.06-.25-.08-.39.07-3.06 1.7-5.69 3.63-8.05.06-.08-.05-.18-.12-.1a16.07 16.07 0 0 0-3.65 6.42v-1.15c.7-2.61 2.5-4.67 4.18-6.81 0-.05 0-.13-.08-.07a23.36 23.36 0 0 0-3.9 5.33v-.17c0-.12.08-.25.11-.37a11.21 11.21 0 0 1 .86-1.86 22.9 22.9 0 0 1 3.19-4c.06-.07 0-.16-.11-.1a26.58 26.58 0 0 0-2.78 3.12 13.45 13.45 0 0 1 3.11-3.89v-.07A14 14 0 0 0 42 73.17c.18-.36.37-.71.57-1a16 16 0 0 1 2.91-3.2l.07.27c0 .12.22.07.21 0s0-.28-.07-.42l.08-.07c.08-.08 0-.21-.12-.16a14.33 14.33 0 0 1-.5-4c0-.39.08-.79.14-1.18a14 14 0 0 0 .51 4c0 .05.09 0 .08 0a13.42 13.42 0 0 1-.31-5A26.57 26.57 0 0 0 46 66.4c0 .09.16.08.15 0a22.91 22.91 0 0 1-.32-5.08 11.16 11.16 0 0 1 .36-2c0-.13.08-.25.12-.38v-.08a23.81 23.81 0 0 0 .16 6.54.06.06 0 0 0 .11 0c-.15-2.71-.43-5.42.5-8 .2-.33.41-.66.64-1a16 16 0 0 0-.72 7.36.08.08 0 0 0 .16 0c-.22-3 0-6.12 1.66-8.67l.32-.3c-1.4 1.92-1.5 5-1.5 7.14 0-2.79.43-5.7 2.37-7.82a3.12 3.12 0 0 1 1-.38 4 4 0 0 0-.83 1 15.35 15.35 0 0 0-2 6h.08A18.52 18.52 0 0 1 49.2 57c.33-.86 1.72-3.55 3.08-3.17a2.29 2.29 0 0 0-.58.29c-1.27.88-1.7 2.88-2.19 4.2.29-.76.59-1.51.94-2.24a7.68 7.68 0 0 1 .72-1.18c.25-.35.88-1 1.43-.9h.07a2.73 2.73 0 0 1 .12.25c-.7.28-1.77 1.9-1.93 2.17 0 0 0 .08.08 0 .21-.36 1.33-2 1.94-2 .44 1.17.37 2.86.75 3.87a5.32 5.32 0 0 0 2.55 2.58 5 5 0 0 0 3.26.53l-.18.1a3.76 3.76 0 0 1-4-.54c-.05 0-.12 0-.07.09a4.16 4.16 0 0 0 3.64 1 5.72 5.72 0 0 0 2.17-.79 3.48 3.48 0 0 0 2-1.45A5.72 5.72 0 0 0 64.41 58a4.15 4.15 0 0 0 .2-3.76c0-.06-.13 0-.11 0a3.76 3.76 0 0 1-.73 4l-.15.15a5 5 0 0 0 .5-3.26A5.33 5.33 0 0 0 62.45 52c-.84-.72-2.45-1.17-3.45-2 .21-.57 2.13-1.13 2.53-1.22.05 0 0-.09 0-.08a7.12 7.12 0 0 0-2.66 1.17l-.2-.19v-.09c.08-.55.88-.95 1.29-1.08a7.72 7.72 0 0 1 1.34-.32c.8-.11 1.61-.16 2.42-.2-1.42 0-3.43-.15-4.63.79a2.28 2.28 0 0 0-.46.46c.05-1.41 3-1.9 4-1.95a18.66 18.66 0 0 1 3.77.34v-.08a15.33 15.33 0 0 0-6.35 0 4 4 0 0 0-1.17.5 3.12 3.12 0 0 1 .68-.85c2.62-1.2 5.51-.68 8.17.16-2.07-.67-5-1.53-7.23-.8l.35-.2c2.95-.83 5.94 0 8.76 1.1a.08.08 0 0 0 .06-.14 16.07 16.07 0 0 0-7.21-1.59c.37-.12.74-.22 1.11-.3 2.7-.09 5.2 1 7.73 2a.05.05 0 0 0 0-.1 23.75 23.75 0 0 0-6.17-2.17h.49a11.14 11.14 0 0 1 2 .28 23 23 0 0 1 4.74 1.88c.09 0 .14-.09.06-.14a26.64 26.64 0 0 0-3.8-1.73 13.41 13.41 0 0 1 4.64 1.83s.1 0 .05-.06a14 14 0 0 0-3.61-1.7c.39.07.79.14 1.17.23a13.93 13.93 0 0 1 3.6 1.67l-.51.32c-.1.07 0 .24.11.18l.66-.36.39.22c.11.05.21-.12.11-.18l-.23-.18a12.61 12.61 0 0 1 3.35-1.55c.38-.09.77-.17 1.17-.24a14 14 0 0 0-3.6 1.72s0 .09.05.06a13.42 13.42 0 0 1 4.64-1.85 26.66 26.66 0 0 0-3.8 1.75c-.09 0 0 .18.06.14a22.89 22.89 0 0 1 4.73-1.9 11.19 11.19 0 0 1 2-.28h.48a23.78 23.78 0 0 0-6.08 2.2.06.06 0 0 0 0 .1c2.53-1 5-2.1 7.72-2 .37.08.74.18 1.11.3a16.07 16.07 0 0 0-7.21 1.62.08.08 0 0 0 .07.14c2.81-1.16 5.8-2 8.76-1.13l.35.19c-2.26-.71-5.16.15-7.22.83 2.66-.85 5.55-1.38 8.17-.19a3.13 3.13 0 0 1 .68.84 4 4 0 0 0-1.18-.49 15.32 15.32 0 0 0-6.35 0v.08a18.62 18.62 0 0 1 3.77-.36c.92 0 3.92.52 4 1.93a2.28 2.28 0 0 0-.46-.46c-1.21-.93-3.22-.75-4.64-.77.81 0 1.62.09 2.42.19a7.79 7.79 0 0 1 1.34.32c.41.13 1.21.53 1.3 1.07v.09l-.2.19a7.1 7.1 0 0 0-2.67-1.16c-.05 0-.06.07 0 .08.41.09 2.32.64 2.54 1.21-1 .79-2.6 1.24-3.44 1.92a5.33 5.33 0 0 0-1.66 3.23 5 5 0 0 0 .51 3.26l-.15-.14a3.76 3.76 0 0 1-.75-4c0-.07-.07-.1-.11 0a4.16 4.16 0 0 0 .21 3.76 5.74 5.74 0 0 0 1.44 1.79 3.5 3.5 0 0 0 2 1.45 5.72 5.72 0 0 0 2.16.81 4.16 4.16 0 0 0 3.64-1c.05-.05 0-.14-.07-.09a3.76 3.76 0 0 1-4 .56l-.18-.09a5 5 0 0 0 3.23-.55 5.32 5.32 0 0 0 2.54-2.6c.38-1 .3-2.71.74-3.87.61 0 1.74 1.67 1.95 2h.08c-.16-.27-1.24-1.88-1.94-2.16a2.44 2.44 0 0 1 .12-.25h.08c.55-.1 1.17.54 1.43.89a7.81 7.81 0 0 1 .73 1.17c.35.73.66 1.48.95 2.24-.47-1.34-.93-3.3-2.2-4.15a2.29 2.29 0 0 0-.58-.29c1.35-.39 2.75 2.3 3.09 3.16a18.52 18.52 0 0 1 .85 3.69h.08a15.34 15.34 0 0 0-2-6 4 4 0 0 0-.84-1 3.13 3.13 0 0 1 1 .38c2 2.11 2.37 5 2.4 7.81 0-2.18-.11-5.22-1.52-7.14l.32.29c1.71 2.54 1.9 5.63 1.7 8.67a.08.08 0 0 0 .16 0 16 16 0 0 0-.75-7.36c.23.32.45.65.64 1 .94 2.54.67 5.25.53 8a.06.06 0 0 0 .11 0 23.79 23.79 0 0 0 .13-6.54v.09c0 .12.08.25.12.37a11.07 11.07 0 0 1 .37 2 23.12 23.12 0 0 1-.3 5.09c0 .09.13.11.15 0a26.8 26.8 0 0 0 .46-4.15 13.46 13.46 0 0 1-.29 5c0 .05.06.08.08 0a14 14 0 0 0 .49-4c.06.4.11.79.14 1.18a13.92 13.92 0 0 1-.46 3.94l-.46-.38c-.09-.08-.22.08-.14.16s.36.34.54.51c0 .15-.05.3-.08.45s.18.17.21 0l.07-.3a12.64 12.64 0 0 1 2.52 2.7c.21.33.4.68.59 1a14 14 0 0 0-2.76-2.88s-.09 0 0 .07a13.42 13.42 0 0 1 3.2 3.83 26.75 26.75 0 0 0-2.85-3.07c-.07-.07-.18 0-.11.1a22.88 22.88 0 0 1 3.28 3.9 11.19 11.19 0 0 1 .91 1.84c0 .13.09.25.13.37v.16a23.36 23.36 0 0 0-4-5.24c0-.05-.13 0-.08.07 1.73 2.09 3.57 4.11 4.33 6.71 0 .37.06.76.06 1.14a16.07 16.07 0 0 0-3.79-6.33c-.07-.08-.18 0-.12.11 2 2.31 3.67 4.9 3.81 8 0 .14 0 .27-.08.4 0-2.37-1.75-4.86-3-6.6 1.64 2.26 3 4.84 2.74 7.7a3.13 3.13 0 0 1-.59.91 4 4 0 0 0 .1-1.27 15.39 15.39 0 0 0-2-6h-.07a18.49 18.49 0 0 1 1.51 3.48c.24.89.73 3.88-.59 4.37a2.26 2.26 0 0 0 .29-.57c.51-1.44-.29-3.29-.72-4.65.22.78.42 1.56.58 2.36a7.9 7.9 0 0 1 .12 1.37c0 .43-.12 1.32-.62 1.57h-.09l-.25-.13a7.08 7.08 0 0 0 .26-2.89c0-.05-.09 0-.08 0 0 .41.12 2.4-.35 2.79-1.05-.68-2-2.08-2.91-2.67a5.32 5.32 0 0 0-3.59-.55 5 5 0 0 0-2.94 1.51c0-.06.05-.12.09-.18a3.76 3.76 0 0 1 3.57-2c.07 0 .07-.1 0-.11a4.16 4.16 0 0 0-3.51 1.38 5.75 5.75 0 0 0-1.24 1.93 3.51 3.51 0 0 0-.74 2.47 5.71 5.71 0 0 0-.09 2.31 4.16 4.16 0 0 0 2.08 3.15c.06 0 .13-.06.06-.09a3.76 3.76 0 0 1-1.79-3.65v-.21a5 5 0 0 0 1.54 2.92A5.32 5.32 0 0 0 99.92 92c1.08 0 2.66-.56 3.91-.51.17.59-1 2.17-1.31 2.48 0 0 0 .1.06.06a7.12 7.12 0 0 0 1.42-2.54h.28l.06.06c.26.49-.14 1.29-.4 1.64a7.66 7.66 0 0 1-.89 1.06c-.58.56-1.2 1.09-1.83 1.6 1.13-.86 2.85-1.92 3.26-3.39a2.3 2.3 0 0 0 .09-.64c.79 1.16-1.33 3.33-2 3.92a18.47 18.47 0 0 1-3.24 2v.07a15.32 15.32 0 0 0 5.08-3.8 4.06 4.06 0 0 0 .65-1.1 3.14 3.14 0 0 1 0 1.08c-1.4 2.51-4 3.82-6.67 4.72 0 0 0 .05 0 0 2.06-.69 4.91-1.73 6.29-3.65-.05.12-.1.24-.17.37-1.88 2.42-4.75 3.57-7.7 4.32a.08.08 0 0 0 0 .15 16 16 0 0 0 6.76-3c-.23.32-.47.62-.72.91-2.12 1.68-4.78 2.28-7.4 3a.06.06 0 0 0 0 .11 23.34 23.34 0 0 0 6.31-2l-.13.12-.31.23a11.15 11.15 0 0 1-1.8 1 23 23 0 0 1-4.92 1.3c-.1 0-.06.16 0 .14a26.82 26.82 0 0 0 4.08-.86 13.44 13.44 0 0 1-4.68 1.33c-.05 0-.06.09 0 .08a14 14 0 0 0 3.91-.77c-.36.18-.72.35-1.08.51a13.88 13.88 0 0 1-3.89.79l.22-.55c.02-.12-.16-.24-.22-.08zm-21.82.84a.92.92 0 0 0 .18.41 1.16 1.16 0 0 1 0 1.47.05.05 0 0 0 0 .08 1 1 0 0 0 0 .13 1.38 1.38 0 0 0 .07.88 1.32 1.32 0 0 0 .12.21 3.63 3.63 0 0 1-.5 1.94 6.3 6.3 0 0 1-.43-1.24 5.21 5.21 0 0 1 .56-3.88zm-.12 9.64v.07h-.07zm.13-4.64zm1-4.09h.06L72 104a.78.78 0 0 0 0-.09zm6.59 4.09a3.64 3.64 0 0 1-.55-1.93 1.29 1.29 0 0 0 .11-.22 1.38 1.38 0 0 0 .05-.88 1 1 0 0 0-.05-.13.05.05 0 0 0 0-.08 1.16 1.16 0 0 1-.06-1.47.92.92 0 0 0 .17-.41 5.22 5.22 0 0 1 .72 3.9 6.29 6.29 0 0 1-.39 1.22zm-1.22-4.18a.8.8 0 0 0 0 .11l-.08-.08zm1.06 4.07zM49.21 83.78h.1v.06zm-4.08.35zm2-.44a1.38 1.38 0 0 0-.16.18A3.62 3.62 0 0 1 45 84a6.33 6.33 0 0 1 1-.8 5.22 5.22 0 0 1 3.92-.62.92.92 0 0 0-.33.3 1.15 1.15 0 0 1-1.4.43.05.05 0 0 0-.07 0H48a1.39 1.39 0 0 0-.83.39zM51 88.88V89zM50.39 90a.05.05 0 0 0 .08 0 1.16 1.16 0 0 1 1.37-.52.93.93 0 0 0 .45 0 5.22 5.22 0 0 1-3.48 1.9 6.29 6.29 0 0 1-1.31 0 3.64 3.64 0 0 1 1.66-1.12 1.28 1.28 0 0 0 .24 0 1.39 1.39 0 0 0 .85-.22zm-2.84 1.2zm3.7-38.8v.08zm8.93-.66zm1 1.82a1.28 1.28 0 0 0-.22-.11 3.64 3.64 0 0 1-.71-1.87 6.24 6.24 0 0 1 1.07.76 5.22 5.22 0 0 1 1.75 3.56.92.92 0 0 0-.39-.23 1.16 1.16 0 0 1-.83-1.21.05.05 0 0 0-.06-.05.86.86 0 0 0 0-.14 1.39 1.39 0 0 0-.59-.71zm.52 2v.1h-.06zm-4.37 3.3l-.08-.07h.11zm-1.18-.29a1.16 1.16 0 0 1 .9 1.16.92.92 0 0 0 .1.44 5.22 5.22 0 0 1-2.84-2.76 6.3 6.3 0 0 1-.39-1.25 3.62 3.62 0 0 1 1.56 1.26 1.41 1.41 0 0 0 0 .24 1.39 1.39 0 0 0 .46.75l.12.08a.05.05 0 0 0 .12.06zm-2-2.42zm43.93-3.61v-.08zm-2.91 3.67zm-1.41 1.54a1.3 1.3 0 0 0 0-.24 3.63 3.63 0 0 1 1.56-1.27 6.24 6.24 0 0 1-.32 1.21 5.22 5.22 0 0 1-2.83 2.77.92.92 0 0 0 .1-.44 1.16 1.16 0 0 1 .89-1.16.05.05 0 0 0 0-.07l.12-.08a1.38 1.38 0 0 0 .47-.75zM92 58.91v-.06h.11zm-4.38-3.29v.11h-.06zm-.05-1.3a.85.85 0 0 0 0 .14.05.05 0 0 0-.05.05 1.16 1.16 0 0 1-.82 1.21.92.92 0 0 0-.39.23A5.21 5.21 0 0 1 88 52.39a6.26 6.26 0 0 1 1-.76 3.64 3.64 0 0 1-.71 1.88 1.33 1.33 0 0 0-.22.11 1.38 1.38 0 0 0-.54.7zm1.57-2.5zm12.77 39zm-1.9-.87h.24a3.62 3.62 0 0 1 1.64 1.05 6.3 6.3 0 0 1-1.31 0 5.22 5.22 0 0 1-3.48-1.8.92.92 0 0 0 .45 0 1.16 1.16 0 0 1 1.38.48.06.06 0 0 0 .08 0l.11.09a1.39 1.39 0 0 0 .88.17zm-1.69-1.33l.05.1zm1.66-5.14v-.06h.1zm1.11-.53a1.16 1.16 0 0 1-1.41-.4.93.93 0 0 0-.34-.29 5.22 5.22 0 0 1 3.93.53 6.31 6.31 0 0 1 1.06.78 3.64 3.64 0 0 1-2-.08 1.24 1.24 0 0 0-.17-.17 1.38 1.38 0 0 0-.82-.33h-.14a.05.05 0 0 0-.2-.04zm3.08.73zm1.1-25.37a19.29 19.29 0 0 1 3.71 8.08l-.17-.39c-.05-.12-.23 0-.18.09 1.36 3.24 2.58 6.32 2.35 9.89-.15 2.32-.44 6.17-2.42 8a9.26 9.26 0 0 0 1.39-4.12 11 11 0 0 0-1.71-6.28 16.19 16.19 0 0 0-4.23-5 16.49 16.49 0 0 0 .49-6.77 11 11 0 0 0-2.38-6.05 9.26 9.26 0 0 0-3.58-2.47c2.64.33 5.18 3.24 6.69 5.02zM94.1 46.9c.39-.35.93-.17 1.41-.16a3.07 3.07 0 0 0-.17.65c0 .11-.07.23-.11.34a3.5 3.5 0 0 1-1.4 1.8v.09a3.4 3.4 0 0 0 1.87-1.77 2.39 2.39 0 0 0 .5-.85c.14-.45.62-.65 1-.89A5.54 5.54 0 0 0 98.53 45a.21.21 0 0 0 .16.07 5.5 5.5 0 0 0-.69 1.66c-.1.42-.14.94-.53 1.21a2.39 2.39 0 0 0-.64.71A3.4 3.4 0 0 0 95.75 51h.1a3.5 3.5 0 0 1 1.26-1.89l.28-.21a3.1 3.1 0 0 0 .57-.37c.17.46.5.91.3 1.39-.35.81-1.29 1.12-1.6 2a2.39 2.39 0 0 1 1-.72c-.08.35-.09.74-.16 1.1a3.51 3.51 0 0 1-.7 1 3.29 3.29 0 0 0-1.37 1.09c-.15.32-.42.74-.84.67a3.44 3.44 0 0 0-.43-.07 2.26 2.26 0 0 0-.65.08 3.37 3.37 0 0 0-1.12.66s0 .11.06.08a3.18 3.18 0 0 1 1.23-.62c.4 0 .65.18 1 .2.55 0 .78-.41.84-.9a1.24 1.24 0 0 1 .42-.35c-.15.27-.21.57-.38 1-.48 1-1.5 1.1-2.48 1.34a3.94 3.94 0 0 0-1.26.47 6 6 0 0 0-2.11 2.3s0 .1.07.05a4.6 4.6 0 0 1 3-2.39l.7-.09c-.35.45-.37 1.09-1 1.38s-1.24.51-1.53 1.2c0 .09.1.13.14.05a1 1 0 0 1 .42-.43c0 .3.11.59-.12.84a6.71 6.71 0 0 1-.61.51l-.24.22h-.36a1.89 1.89 0 0 0 .76-.85s-.05-.09-.08 0a1.76 1.76 0 0 1-1.39.81l-.26-.06a3.42 3.42 0 0 0 1.09-.74c.51-.49.67-1.41 1.36-1.71a4.07 4.07 0 0 0 1.34-.72s0-.1-.05-.07a5.34 5.34 0 0 1-1.5.62 2.06 2.06 0 0 0-.71.76 2.79 2.79 0 0 1-2 1.48 4.27 4.27 0 0 0 .82-.66 4 4 0 0 1-.89.48 1.8 1.8 0 0 1-.45.08c.67-.93 1.39-1.82 2.14-2.7s2-1.86 2.45-3.11a2.89 2.89 0 0 0 0-.83c-.05-1 1.2-1.52 1.78-2.08a15.09 15.09 0 0 0 2.19-3.55c.05-.1-.09-.21-.15-.11-1 1.66-1.72 3.31-3.59 4.22-.48.24-.9.43-1 1-.22 2.35-2.78 4.91-4.13 7l-.1-.09a1.75 1.75 0 0 1-.06-.45 4.08 4.08 0 0 1 .17-1h-.05a4.22 4.22 0 0 0-.36 1 2.79 2.79 0 0 1 .76-2.4 2 2 0 0 0 .5-.92 5.35 5.35 0 0 1 .11-1.62c0-.05-.06-.08-.08 0a4.06 4.06 0 0 0-.2 1.4c-.07.75-.89 1.19-1.19 1.83a3.43 3.43 0 0 0-.41 1.15l-.13-.22a1.76 1.76 0 0 1 .33-1.58s0-.1-.07-.06a1.88 1.88 0 0 0-.56 1c0-.12-.09-.23-.12-.35s.09-.19.13-.29a6.76 6.76 0 0 1 .29-.74c.16-.3.47-.31.76-.38a1 1 0 0 1-.28.53c-.07.07 0 .18.09.11.57-.49.56-1.13.66-1.83s.7-.87 1-1.34c0 .22.09.44.14.69a4.6 4.6 0 0 1-1.31 3.64s0 .09.07.05a6 6 0 0 0 1.51-2.73 3.94 3.94 0 0 0 .05-1.35c-.08-1-.35-2 .49-2.78.31-.29.58-.44.79-.67h.05a1.25 1.25 0 0 1-.2.51c-.44.21-.79.57-.59 1.08.13.34.42.51.51.9a3.17 3.17 0 0 1-.2 1.37c0 .06.07.09.09 0a3.34 3.34 0 0 0 .27-1.27 2.28 2.28 0 0 0-.13-.65 2.85 2.85 0 0 0-.2-.39c-.2-.38.11-.76.37-1a3.29 3.29 0 0 0 .6-1.64 3.53 3.53 0 0 1 .71-1c.32-.18.68-.31 1-.5a2.39 2.39 0 0 1-.39 1.14c.72-.53.7-1.52 1.37-2.1zm-2.35 1h-.07zm-26.4-5.07a19.28 19.28 0 0 1 8.83-1h-.42c-.13 0-.09.21 0 .2 3.5-.28 6.81-.47 10.13.86 2.16.87 5.72 2.35 6.85 4.8a9.28 9.28 0 0 0-3.48-2.61 11 11 0 0 0-6.5-.34 16.15 16.15 0 0 0-6 2.46 16.5 16.5 0 0 0-6.28-2.58A11 11 0 0 0 62 45a9.26 9.26 0 0 0-3.47 2.62c1.1-2.4 4.66-3.9 6.81-4.78zm-7.74 5h-.07.08zm-7-2.84a.21.21 0 0 0 .11-.14 5.5 5.5 0 0 0 1.38 1.19c.37.23.84.43 1 .88a2.39 2.39 0 0 0 .47.83 3.4 3.4 0 0 0 1.87 1.76v-.09a3.5 3.5 0 0 1-1.4-1.79c0-.11-.08-.22-.11-.33a3.12 3.12 0 0 0-.18-.66c.49 0 1-.19 1.41.15.67.58.66 1.57 1.36 2.13a2.39 2.39 0 0 1-.37-1.15c.31.19.67.31 1 .49a3.47 3.47 0 0 1 .71 1 3.28 3.28 0 0 0 .6 1.64c.25.25.57.62.37 1a3 3 0 0 0-.2.39 2.29 2.29 0 0 0-.13.65 3.36 3.36 0 0 0 .27 1.27c0 .06.11 0 .09 0a3.17 3.17 0 0 1-.2-1.37c.09-.39.38-.57.51-.91.2-.51-.15-.87-.59-1.07a1.24 1.24 0 0 1-.2-.51h.05c.21.22.48.38.79.66.84.78.57 1.77.5 2.78a4 4 0 0 0 .06 1.35 6 6 0 0 0 1.53 2.72s.11 0 .07-.05a4.6 4.6 0 0 1-1.32-3.63c0-.25.09-.48.14-.7.31.47.92.7 1 1.34s.09 1.34.67 1.83c.08.06.16 0 .09-.12a1 1 0 0 1-.28-.53c.29.07.59.08.76.38a6.89 6.89 0 0 1 .29.73c0 .1.08.2.13.29s-.08.23-.12.35a1.88 1.88 0 0 0-.57-1s-.1 0-.07.06a1.76 1.76 0 0 1 .34 1.58l-.13.23a3.44 3.44 0 0 0-.31-1.24c-.31-.63-1.13-1.07-1.2-1.83a4.1 4.1 0 0 0-.21-1.4h-.08a5.31 5.31 0 0 1 .11 1.62 2.05 2.05 0 0 0 .5.91 2.79 2.79 0 0 1 .77 2.4 4.27 4.27 0 0 0-.37-1h-.05a4 4 0 0 1 .18 1 1.86 1.86 0 0 1-.06.46c-.68-.93-1.29-1.89-1.89-2.88s-1.15-2.46-2.19-3.3a2.9 2.9 0 0 0-.8-.25c-1-.26-1.07-1.61-1.42-2.34a15 15 0 0 0-2.69-3.19c-.08-.08-.22 0-.15.11 1.26 1.46 2.61 2.67 2.89 4.73.07.53.13 1 .67 1.22 2.16.95 3.8 4.18 5.32 6.1l-.12.06a1.8 1.8 0 0 1-.45-.08 4 4 0 0 1-.89-.48 4.26 4.26 0 0 0 .83.65 2.79 2.79 0 0 1-2-1.47 2 2 0 0 0-.71-.76 5.33 5.33 0 0 1-1.5-.61s-.1 0-.06.07a4.08 4.08 0 0 0 1.26.63c.7.3.86 1.22 1.37 1.7a3.43 3.43 0 0 0 1.09.73l-.26.06a1.76 1.76 0 0 1-1.39-.81h-.08a1.9 1.9 0 0 0 .77.85h-.36l-.24-.21a7 7 0 0 1-.61-.5c-.23-.25-.15-.54-.13-.84a1 1 0 0 1 .42.43c0 .08.18 0 .14-.05-.29-.7-.91-.89-1.54-1.2s-.61-.94-1-1.38l.71.09a4.6 4.6 0 0 1 3 2.38c0 .05.1 0 .07-.05a6 6 0 0 0-2.12-2.29 3.93 3.93 0 0 0-1.26-.47c-1-.24-2-.29-2.49-1.33-.18-.38-.24-.69-.39-1a1.24 1.24 0 0 1 .42.35c.06.48.29.93.84.9.36 0 .62-.24 1-.2a3.16 3.16 0 0 1 1.24.62c.05 0 .11 0 .06-.08a3.32 3.32 0 0 0-1.12-.65 2.27 2.27 0 0 0-.66-.08 3.18 3.18 0 0 0-.43.07c-.43.07-.69-.35-.85-.66a3.29 3.29 0 0 0-1.37-1.08 3.5 3.5 0 0 1-.71-1c-.07-.36-.08-.74-.16-1.09a2.38 2.38 0 0 1 1 .71c-.31-.84-1.26-1.14-1.61-2-.21-.48.13-.94.29-1.39a3.08 3.08 0 0 0 .57.37l.28.21a3.5 3.5 0 0 1 1.27 1.89.05.05 0 0 0 .1 0 3.41 3.41 0 0 0-1.1-2.33 2.42 2.42 0 0 0-.64-.7c-.38-.28-.43-.79-.53-1.21a5.54 5.54 0 0 0-.69-1.51zm-12.46 31.6c-.28-3.24.64-6.11 1.78-9.06v.08c0 .13.17.16.2 0 .83-3.41 1.68-6.62 4-9.35 1.5-1.78 4-4.7 6.71-5a9.26 9.26 0 0 0-3.57 2.49 11 11 0 0 0-2.36 6.06 16.59 16.59 0 0 0 .53 6.84 17 17 0 0 0-4.58 5.47 11 11 0 0 0-1.56 6.32 9.28 9.28 0 0 0 1.48 4.08c-2.05-1.78-2.43-5.62-2.63-7.93zm2.54 8.88l-.06.05v-.07zm-.06 6.86c-.52.06-.86-.39-1.24-.69a3.12 3.12 0 0 0 .53-.44l.28-.2a3.5 3.5 0 0 1 2.18-.66.05.05 0 0 0 0-.1 3.41 3.41 0 0 0-2.55.36 2.37 2.37 0 0 0-.83.4 1.92 1.92 0 0 1-1.32.15 5.53 5.53 0 0 0-1.77.17.21.21 0 0 0-.1-.15 5.49 5.49 0 0 0 1.54-1c.33-.29.66-.68 1.13-.69a2.45 2.45 0 0 0 .93-.21A3.41 3.41 0 0 0 41.64 88a.05.05 0 0 0-.08-.07 3.5 3.5 0 0 1-2.12.81h-.35a3 3 0 0 0-.68 0c.13-.47.12-1 .56-1.31.75-.46 1.7-.16 2.44-.67a2.39 2.39 0 0 1-1.21 0c.27-.24.5-.55.76-.8a3.49 3.49 0 0 1 1.14-.39 3.3 3.3 0 0 0 1.74-.1c.31-.17.76-.36 1.07-.06a3.32 3.32 0 0 0 .31.3 2.24 2.24 0 0 0 .58.31 3.35 3.35 0 0 0 1.29.11c.06 0 .05-.09 0-.1a3.19 3.19 0 0 1-1.37-.21c-.35-.2-.43-.52-.72-.75s-.88-.12-1.21.25a1.24 1.24 0 0 1-.54 0 .2.2 0 0 0 0-.06c.27-.13.5-.34.86-.55 1-.57 1.86 0 2.8.34a3.93 3.93 0 0 0 1.28.34 5.94 5.94 0 0 0 3.05-.66c.05 0 0-.11 0-.08a4.61 4.61 0 0 1-3.86.19l-.62-.34c.54-.16.94-.67 1.58-.58a2.56 2.56 0 0 0 2.02.08c.08-.05 0-.17-.08-.12a1 1 0 0 1-.59.11c.15-.26.25-.54.59-.61a7.18 7.18 0 0 1 .79-.06h.32l.3.22a1.89 1.89 0 0 0-1.12.25v.08a1.76 1.76 0 0 1 1.61.14l.18.19a3.42 3.42 0 0 0-1.32 0c-.7.11-1.36.76-2.1.61a4.11 4.11 0 0 0-1.39-.21v.09a5.35 5.35 0 0 1 1.58.37 2 2 0 0 0 1-.21 2.79 2.79 0 0 1 2.52 0 4.3 4.3 0 0 0-1.05.06v.06a4 4 0 0 1 1 .12 1.79 1.79 0 0 1 .42.19c-1.09.37-2.19.68-3.31 1-1.29.32-2.69.37-3.8 1.12a2.9 2.9 0 0 0-.47.69c-.53.84-1.86.54-2.65.66A15.08 15.08 0 0 0 39 90.2c-.1 0 0 .22.06.17 1.76-.78 3.31-1.71 5.37-1.37.53.09 1 .17 1.37-.28 1.54-1.79 5.11-2.4 7.39-3.29v.14A1.8 1.8 0 0 1 53 86a4.17 4.17 0 0 1-.72.71 4.24 4.24 0 0 0 .87-.6 2.79 2.79 0 0 1-2 1.52 2 2 0 0 0-.93.46c-.37.42-.53.94-1 1.26v.07a4.09 4.09 0 0 0 1-1c.49-.57 1.42-.46 2-.8a3.44 3.44 0 0 0 1-.83v.26a1.76 1.76 0 0 1-1.18 1.09c-.05 0 0 .09 0 .09a1.88 1.88 0 0 0 1-.48c0 .12-.06.23-.1.34l-.27.16a6.76 6.76 0 0 1-.66.43c-.31.15-.56 0-.84-.12a1 1 0 0 1 .53-.27c.09 0 .09-.16 0-.15-.75.07-1.11.6-1.59 1.11s-1.07.31-1.6.51c.09-.2.18-.41.29-.65a4.6 4.6 0 0 1 3.17-2.21c.06 0 0-.1 0-.09a6 6 0 0 0-2.81 1.35 3.93 3.93 0 0 0-.81 1.05c-.52.87-.86 1.83-2 2-.41.06-.73 0-1 .09a1.24 1.24 0 0 1 .46-.3c.48.08 1 0 1.1-.54.09-.35 0-.66.1-1a3.16 3.16 0 0 1 1-1s0-.12-.06-.08a3.34 3.34 0 0 0-1 .88 2.26 2.26 0 0 0-.27.6 2.9 2.9 0 0 0-.06.43c-.06.43-.53.56-.88.61a3.3 3.3 0 0 0-1.44 1 3.52 3.52 0 0 1-1.14.39c-.36 0-.73-.14-1.1-.17a2.39 2.39 0 0 1 1-.73c-.99.03-1.55.84-2.43.94zm2.5.53h.08zm18.6 19.41A19.32 19.32 0 0 1 54 108l.37.21c.11.06.2-.11.09-.18-3-1.8-5.83-3.55-7.76-6.57-1.26-2-3.31-5.23-2.81-7.88a9.27 9.27 0 0 0 1.33 4.14 11 11 0 0 0 5.1 4 16.13 16.13 0 0 0 6.35 1.49 16.49 16.49 0 0 0 3.57 5.79 11 11 0 0 0 5.51 3.46 9.26 9.26 0 0 0 4.35-.13c-2.33 1.31-6.1.47-8.37-.06zm15.73 2.57c-.11.51-.64.69-1 1a3 3 0 0 0-.25-.64c0-.11-.08-.22-.11-.33a3.5 3.5 0 0 1 .06-2.27h-.09a3.4 3.4 0 0 0-.45 2.53 2.42 2.42 0 0 0 .12.94 1.92 1.92 0 0 1-.27 1.3A5.53 5.53 0 0 0 75 119a.21.21 0 0 0-.17 0 5.5 5.5 0 0 0-.44-1.77 1.91 1.91 0 0 1-.3-1.29 2.43 2.43 0 0 0 .09-.94 3.4 3.4 0 0 0-.51-2.52.05.05 0 0 0-.09.05 3.5 3.5 0 0 1 .11 2.27c0 .11-.06.22-.1.34a3.09 3.09 0 0 0-.24.64c-.41-.27-.95-.44-1.06-.94-.21-.86.38-1.66.12-2.53a2.38 2.38 0 0 1-.36 1.15c-.14-.33-.37-.65-.52-1a3.51 3.51 0 0 1 0-1.21 3.27 3.27 0 0 0 .46-1.69c-.07-.35-.1-.84.28-1a3.22 3.22 0 0 0 .39-.2 2.26 2.26 0 0 0 .48-.46 3.39 3.39 0 0 0 .51-1.19c0-.06-.07-.08-.09 0a3.19 3.19 0 0 1-.62 1.23c-.3.27-.63.24-.94.45-.46.3-.38.8-.14 1.22a1.24 1.24 0 0 1-.13.53c0-.3-.17-.59-.26-1-.24-1.12.55-1.77 1.2-2.55a3.93 3.93 0 0 0 .72-1.11 5.94 5.94 0 0 0 .33-3.1c0-.06-.1-.06-.09 0a4.6 4.6 0 0 1-1 3.73l-.51.49c0-.57-.35-1.1-.05-1.68a2.55 2.55 0 0 0 .52-1.88c0-.1-.16-.05-.14 0a1 1 0 0 1-.08.59c-.2-.22-.44-.41-.4-.75a7.48 7.48 0 0 1 .19-.77c0-.1 0-.21.06-.31l.3-.22a1.9 1.9 0 0 0-.12 1.14c0 .05.1 0 .09 0a1.75 1.75 0 0 1 .63-1.48l.24-.11a3.41 3.41 0 0 0-.44 1.24c-.12.69.3 1.53-.08 2.18a4.08 4.08 0 0 0-.64 1.26c0 .06.07.08.09 0 .13-.57.57-.9.84-1.39a2.06 2.06 0 0 0 .12-1A2.78 2.78 0 0 1 74 101a4.31 4.31 0 0 0-.27 1h.05a4 4 0 0 1 .43-.91 1.84 1.84 0 0 1 .31-.33c0 1.15 0 2.29-.12 3.44-.1 1.32-.49 2.67-.12 4a2.94 2.94 0 0 0 .51.66c.63.76-.06 1.93-.2 2.73a15.13 15.13 0 0 0 .35 4.16c0 .11.19.12.18 0-.19-1.92-.59-3.68.38-5.53.25-.48.47-.88.16-1.39-1.22-2-.68-5.6-.82-8.05h.14a1.81 1.81 0 0 1 .32.33 4.12 4.12 0 0 1 .45.9h.05a4.25 4.25 0 0 0-.3-1 2.79 2.79 0 0 1 .81 2.38 2 2 0 0 0 .14 1c.29.48.73.8.88 1.37 0 .06.1 0 .08 0a4.11 4.11 0 0 0-.67-1.24c-.39-.64 0-1.49-.13-2.18a3.43 3.43 0 0 0-.47-1.23l.24.1a1.76 1.76 0 0 1 .67 1.47c0 .05.08.06.09 0a1.88 1.88 0 0 0-.15-1.14l.31.21c0 .11 0 .21.07.31a7 7 0 0 1 .21.76c0 .34-.19.53-.38.76a1 1 0 0 1-.09-.59c0-.09-.12-.13-.14 0a2.56 2.56 0 0 0 .56 1.87c.31.57 0 1.11 0 1.68L77 106a4.59 4.59 0 0 1-1.11-3.7c0-.06-.08-.06-.09 0a6 6 0 0 0 .4 3.1 3.93 3.93 0 0 0 .75 1.1c.67.77 1.47 1.39 1.26 2.52-.08.41-.2.7-.24 1a1.24 1.24 0 0 1-.14-.53c.23-.43.3-.93-.17-1.22-.31-.19-.64-.16-.95-.42a3.14 3.14 0 0 1-.65-1.22c0-.06-.11 0-.09 0a3.34 3.34 0 0 0 .54 1.18 2.24 2.24 0 0 0 .49.44 2.77 2.77 0 0 0 .39.19c.39.19.36.68.31 1a3.28 3.28 0 0 0 .49 1.67 3.55 3.55 0 0 1 0 1.2c-.15.33-.36.65-.5 1a2.4 2.4 0 0 1-.39-1.15c-.3 1.02.35 1.84.16 2.68zm1.29-2.21v-.08zM103 101a19.29 19.29 0 0 1-6.51 6l.32-.29c.09-.09 0-.22-.14-.14-2.65 2.3-5.2 4.43-8.66 5.32-2.25.58-6 1.51-8.36.21a9.27 9.27 0 0 0 4.34 0 11 11 0 0 0 5.43-3.58 16.16 16.16 0 0 0 3.4-5.57 16.48 16.48 0 0 0 6.58-1.65 11 11 0 0 0 5-4.16 9.28 9.28 0 0 0 1.23-4.17c.56 2.75-1.42 6.03-2.63 8.03zm3.24-8.65h.08-.06zm5.51-1.83a1.91 1.91 0 0 1-1.32-.12 2.4 2.4 0 0 0-.87-.38 3.4 3.4 0 0 0-2.56-.31v.1a3.5 3.5 0 0 1 2.19.61l.29.2a3 3 0 0 0 .53.42c-.38.3-.71.76-1.23.72-.88-.07-1.46-.88-2.36-.9a2.39 2.39 0 0 1 1 .7c-.36 0-.73.15-1.09.19a3.48 3.48 0 0 1-1.15-.36 3.29 3.29 0 0 0-1.46-1c-.35 0-.83-.16-.9-.59a3.68 3.68 0 0 0-.07-.43 2.29 2.29 0 0 0-.29-.6 3.33 3.33 0 0 0-1-.86c-.05 0-.1 0-.05.08a3.18 3.18 0 0 1 1 1c.16.37 0 .68.13 1 .14.53.64.61 1.12.51a1.24 1.24 0 0 1 .46.29c-.3-.06-.61 0-1-.07-1.14-.13-1.51-1.08-2.05-1.94a3.92 3.92 0 0 0-.83-1 6 6 0 0 0-2.84-1.28c-.06 0-.09.07 0 .09a4.61 4.61 0 0 1 3.22 2.14c.12.23.21.44.3.64-.53-.19-1.15 0-1.61-.48s-.87-1-1.62-1.08c-.1 0-.1.13 0 .15a1 1 0 0 1 .54.26c-.27.12-.53.29-.84.14a7.11 7.11 0 0 1-.67-.42l-.28-.16c0-.11-.07-.23-.11-.34a1.89 1.89 0 0 0 1 .46c.05 0 .07-.08 0-.09a1.75 1.75 0 0 1-1.21-1.07v-.26a3.42 3.42 0 0 0 1 .81c.62.33 1.55.19 2.05.76a4 4 0 0 0 1 1s.1 0 0-.07c-.5-.3-.68-.82-1.05-1.24a2.06 2.06 0 0 0-.95-.44 2.79 2.79 0 0 1-2-1.47 4.28 4.28 0 0 0 .88.58 4 4 0 0 1-.73-.69 1.77 1.77 0 0 1-.22-.4c1.1.35 2.17.75 3.23 1.19 1.22.51 2.38 1.3 3.72 1.36a3 3 0 0 0 .79-.27c.92-.36 1.82.66 2.53 1a15.08 15.08 0 0 0 4.06 1c.11 0 .17-.15.05-.17-1.88-.42-3.68-.59-5.13-2.09-.37-.39-.69-.72-1.27-.59-2.31.52-5.54-1.1-7.9-1.74l.06-.13a1.8 1.8 0 0 1 .41-.2 4 4 0 0 1 1-.14v-.06a4.28 4.28 0 0 0-1.06 0 2.79 2.79 0 0 1 2.52 0 2 2 0 0 0 1 .19 5.36 5.36 0 0 1 1.57-.4v-.09a4.11 4.11 0 0 0-1.39.25c-.74.17-1.41-.47-2.11-.56a3.44 3.44 0 0 0-1.32.06l.17-.2a1.76 1.76 0 0 1 1.6-.18s.08-.06 0-.08a1.88 1.88 0 0 0-1.13-.22l.29-.23h.32A6.85 6.85 0 0 1 99 83c.33.06.44.35.6.6a1 1 0 0 1-.59-.1c-.08 0-.16.07-.08.12a2.55 2.55 0 0 0 1.94.05c.64-.11 1 .39 1.59.54l-.62.35a4.6 4.6 0 0 1-3.86-.11c-.05 0-.08.06 0 .09a6 6 0 0 0 3.07.59 3.91 3.91 0 0 0 1.27-.37c.94-.39 1.78-1 2.79-.41.36.2.6.4.88.53a.17.17 0 0 0 0 .06 1.25 1.25 0 0 1-.55 0c-.34-.36-.79-.57-1.21-.22s-.35.56-.7.77a3.15 3.15 0 0 1-1.36.24c-.06 0-.07.09 0 .1a3.34 3.34 0 0 0 1.29-.14 2.22 2.22 0 0 0 .58-.33 3 3 0 0 0 .3-.31c.3-.31.76-.13 1.08 0a3.31 3.31 0 0 0 1.75.05 3.51 3.51 0 0 1 1.14.36c.27.24.51.55.78.78a2.39 2.39 0 0 1-1.21 0c.75.49 1.69.17 2.45.62.45.26.46.83.59 1.29a3.09 3.09 0 0 0-.69 0h-.35a3.49 3.49 0 0 1-2.14-.76s-.12 0-.07.07a3.4 3.4 0 0 0 2.33 1.28 2.4 2.4 0 0 0 .93.18c.47 0 .81.38 1.15.66a5.55 5.55 0 0 0 1.52.92.21.21 0 0 0 0 .18 5.51 5.51 0 0 0-1.85-.14z" fill="#0d465b"/><path class="cls-1" d="M76 106.23a1.59 1.59 0 0 1-.13-.54c0-.07-.11-.07-.1 0a1.36 1.36 0 0 0 .16.57s.07.01.07-.03z" fill="#0d465b"/><path class="cls-1" d="M75.5 104.7c0 .11.06.21.09.32s.12 0 .1 0-.06-.22-.1-.32-.11-.06-.09 0z" fill="#0d465b"/><path class="cls-1" d="M77.21 110.57c-.14-.31-.46-.53-.61-.85h-.07a1.68 1.68 0 0 0 .49.72c.32.35.06.95.15 1.37h.07c-.06-.4.15-.81-.03-1.24z" fill="#0d465b"/><path class="cls-1" d="M73.75 105.72a1.57 1.57 0 0 1-.12.54s.05.07.07 0a1.37 1.37 0 0 0 .15-.57.05.05 0 0 0-.1.03z" fill="#0d465b"/><path class="cls-1" d="M74 104.69c0 .11-.05.22-.09.32s.08.09.1 0 .05-.22.09-.32-.1-.06-.1 0z" fill="#0d465b"/><path class="cls-1" d="M73.07 109.76c-.15.32-.46.54-.59.86s.06.84 0 1.26c0 0 .06.07.07 0 .08-.43-.19-1 .12-1.37a1.66 1.66 0 0 0 .48-.74s-.06-.05-.08-.01z" fill="#0d465b"/><path class="cls-1" d="M48.33 88.22a1.58 1.58 0 0 1 .47-.29c.06 0 0-.12 0-.1a1.39 1.39 0 0 0-.49.33s-.01.09.02.06z" fill="#0d465b"/><path class="cls-1" d="M49.7 87.38s0-.12-.06-.08l-.28.19c-.05 0 0 .13.06.09z" fill="#0d465b"/><path class="cls-1" d="M44.6 90.76c.26-.23.36-.6.62-.84 0 0 0-.08-.05-.06a1.69 1.69 0 0 0-.53.69c-.23.41-.88.36-1.25.57v.06c.4-.18.89-.18 1.21-.42z" fill="#0d465b"/><path class="cls-1" d="M48.16 86c.07 0 0-.12 0-.1a1.55 1.55 0 0 1-.55.06v.08a1.33 1.33 0 0 0 .55-.04z" fill="#0d465b"/><path class="cls-1" d="M49.18 85.93c.07 0 .06-.1 0-.1h-.34c-.07 0-.06.1 0 .1z" fill="#0d465b"/><path class="cls-1" d="M43.22 86.43a1.67 1.67 0 0 0 .85.22s.05-.07 0-.08c-.35 0-.66-.27-1-.29s-.78.32-1.2.38v.07c.44-.05.92-.49 1.35-.3z" fill="#0d465b"/><path class="cls-1" d="M81.41 78.26a4.77 4.77 0 0 0-.15-.74 6.41 6.41 0 0 0-.82-1.87 7.07 7.07 0 0 0-1.84-1.91 6.74 6.74 0 0 0-6.46-.68 7.11 7.11 0 0 0-1.64 1 7.25 7.25 0 0 0-1.32 1.45 7.34 7.34 0 0 0-.87 1.8 6.53 6.53 0 0 0 0 4 7.34 7.34 0 0 0 .87 1.8 6.57 6.57 0 0 0 3 2.42 6.62 6.62 0 0 0 1.78.47 6.51 6.51 0 0 0 .88.05c.3 0 .58 0 .87-.06a6.85 6.85 0 0 0 2.94-1.15 7.06 7.06 0 0 0 1.84-1.91 6.47 6.47 0 0 0 .77-1.93 4.77 4.77 0 0 0 .15-.74 3.55 3.55 0 0 0 .06-.56v-.46.46a3.68 3.68 0 0 1-.07.55 4.82 4.82 0 0 1-.16.74 6.46 6.46 0 0 1-2.71 3.67 6.65 6.65 0 0 1-2.89 1h-.82a6.58 6.58 0 0 1-2.49-.6 6.67 6.67 0 0 1-2.68-2.34 6.79 6.79 0 0 1-.77-1.66 6.68 6.68 0 0 1 0-3.65 6.78 6.78 0 0 1 .77-1.66 6.68 6.68 0 0 1 2.68-2.33 6.5 6.5 0 0 1 3.32-.58 6.65 6.65 0 0 1 2.89 1 6.45 6.45 0 0 1 2.71 3.67 4.82 4.82 0 0 1 .16.74 3.68 3.68 0 0 1 .07.55v0a3.56 3.56 0 0 0-.07-.54z" fill="#0d465b"/><path class="cls-1" d="M64.81 69.5s.09 0 0-.08a1.2 1.2 0 0 1-.57-.64h-.07a1.34 1.34 0 0 0 .64.72z" fill="#0d465b"/><path class="cls-1" d="M65.58 70.25v0z" fill="#0d465b"/><path class="cls-1" d="M65.13 74.08a3.55 3.55 0 0 0-1.2-.76c-.06 0-.1.08 0 .1a4.25 4.25 0 0 1 1.15.75c.02.06.11-.03.05-.09z" fill="#0d465b"/><path class="cls-1" d="M62 82.77c.69-.39 1.52-.47 2.17-.91a.08.08 0 0 0-.08-.14c-.7.35-1.49.52-2.16.92a.07.07 0 0 0 .07.13z" fill="#0d465b"/><path class="cls-1" d="M63.88 81.24c0-.05 0-.12-.09-.07a1.06 1.06 0 0 1-.71.32c-.06 0-.07.1 0 .1a.91.91 0 0 0 .8-.35z" fill="#0d465b"/><path class="cls-1" d="M61.89 85a6.59 6.59 0 0 0-1.17.85s0 .1.06.06a6.5 6.5 0 0 1 1.16-.82c.06-.03.01-.09-.05-.09z" fill="#0d465b"/><path class="cls-1" d="M64 82.9c-.52.24-1.06.43-1.58.68-.07 0 0 .13.06.1.52-.24 1.08-.4 1.59-.65.14-.03.06-.17-.07-.13z" fill="#0d465b"/><path class="cls-1" d="M65 84.16c-.42.27-.82.58-1.24.86v.07c.43-.26.83-.55 1.26-.81.08-.06-.02-.17-.02-.12z" fill="#0d465b"/><path class="cls-1" d="M64.64 87.18A4.87 4.87 0 0 1 66.13 86c.1-.05 0-.22-.08-.18a4 4 0 0 0-1.53 1.21c-.06.12.05.23.12.15z" fill="#0d465b"/><path class="cls-1" d="M78.18 89.67c.44 1.29 1.29 2.39 1.62 3.72h.06a27.64 27.64 0 0 0-1.38-3.78c-.07-.21-.36-.13-.3.06z" fill="#0d465b"/><path class="cls-1" d="M79.67 89.27c0-.12-.19-.07-.18 0a3.59 3.59 0 0 0 .51 1.4.08.08 0 0 0 .14-.08 5 5 0 0 1-.47-1.32z" fill="#0d465b"/><path class="cls-1" d="M80.52 88.69a.15.15 0 0 0-.21.21c.8.95 1.53 2 2.28 2.94.07.09.22 0 .16-.09a17 17 0 0 0-2.23-3.06z" fill="#0d465b"/><path class="cls-1" d="M83 86.42a13.73 13.73 0 0 0 1.19.89 5 5 0 0 0-1.15-.95.05.05 0 0 0-.04.06z" fill="#0d465b"/><path class="cls-1" d="M86.29 86.83c-.68-.69-1.57-1.06-2.22-1.78-.08-.09-.22 0-.16.12.48.83 1.61 1.13 2.3 1.74.05.09.14-.02.08-.08z" fill="#0d465b"/><path class="cls-1" d="M85.28 85.24a3.57 3.57 0 0 1-.89-.59c-.09-.08-.21 0-.13.13a4.27 4.27 0 0 0 .95.58c.08.03.15-.09.07-.12z" fill="#0d465b"/><path class="cls-1" d="M90.35 82.88a24.86 24.86 0 0 0-5-1.31 11.84 11.84 0 0 0 .17-1.57v-.74.74a5.91 5.91 0 0 1-.11.89 6.06 6.06 0 0 1-.12.65h-.11c-.08 0-.1.13 0 .14h.09c0 .12-.06.24-.1.37l-.1.32h-.12c-.08 0-.08.13 0 .12H85A9.8 9.8 0 0 1 83.78 85a10.18 10.18 0 0 1-3 2.94 10.65 10.65 0 0 1-4.64 1.58H74.88a10.55 10.55 0 0 1-4-1 10.69 10.69 0 0 1-4.29-3.74 10.87 10.87 0 0 1-1.23-2.67 10.69 10.69 0 0 1 0-5.85 10.82 10.82 0 0 1 1.23-2.67A10.71 10.71 0 0 1 70.85 70a10.41 10.41 0 0 1 5.32-1 10.66 10.66 0 0 1 4.63 1.6 10.35 10.35 0 0 1 4.34 5.88c0 .16.08.3.12.44a.08.08 0 0 0 0 .1 5.8 5.8 0 0 1 .12.63 5.91 5.91 0 0 1 .11.89v.74-.74a6 6 0 0 0-.09-.89 5.38 5.38 0 0 0-.1-.61h.05a11.13 11.13 0 0 1 3.87-1 .07.07 0 0 0 0-.13 9.72 9.72 0 0 0-4 1c0-.14-.06-.27-.1-.42a10.28 10.28 0 0 0-1.32-3 11.32 11.32 0 0 0-2.95-3.06 11 11 0 0 0-1.22-.72.91.91 0 0 0 0-.58c0-.1-.2-.06-.16 0a.62.62 0 0 1 0 .45c-.21-.1-.42-.21-.63-.3 0-.38.07-.77.13-1.15 0-.11-.14-.16-.17 0a5.63 5.63 0 0 0-.19 1.11c-.22-.09-.45-.15-.68-.23a6.76 6.76 0 0 0 .32-3.45h-.06a7.62 7.62 0 0 1-.57 3.33l-.55-.13a6.47 6.47 0 0 0 .35-2.13 11.1 11.1 0 0 0-.22-3.09c0-.07-.13 0-.11 0a13.77 13.77 0 0 1-.33 5.13c-.19 0-.38-.09-.57-.12h-.09c.86-2.37.31-5.51.07-7.94a66.68 66.68 0 0 1-.39 7.91c-.25 0-.51 0-.77-.05.34-1.85-.3-3.71-.17-5.6a22.34 22.34 0 0 0 .1-5.74c0-.1-.17-.06-.16 0 .33 2.18-.19 4.18-.52 6.32-.26 1.7.46 3.3.25 5h-.63a.14.14 0 0 0 0-.07c.13-1.29-.44-2.5-.58-3.77s.45-2.7.42-4.06a.06.06 0 0 0-.12 0c0 1.21-.42 2.35-.56 3.54-.19 1.52.38 2.8.57 4.29a.15.15 0 0 0 0 .09c-.28 0-.56.08-.85.13 0-1.2-1-2.22-.74-3.45 0-.08-.11-.12-.13 0-.29 1.2.53 2.34.58 3.54-.33.07-.66.15-1 .26-.08-.61-.38-1.2-.48-1.79 0-.06-.1 0-.1 0 .08.64.25 1.23.31 1.87-.19.06-.38.12-.57.19a1.89 1.89 0 0 0-.21-.52.07.07 0 0 0-.13.07 1.68 1.68 0 0 1 .18.5l-.39.18a1.14 1.14 0 0 0-.29-.57s-.05 0 0 0a1.24 1.24 0 0 1 .16.61c-.26.13-.52.27-.77.42a9 9 0 0 0-2-4.16s-.1 0-.07.07a7.91 7.91 0 0 1 1.79 4.38c-.3.2-.6.4-.89.62-.09-3.15-3.46-5.87-4.88-8.47 0-.06-.12 0-.09.05 1.5 3.07 3.81 5.34 4.59 8.76-.23.21-.46.42-.68.65-.45-.86-.69-1.79-1.11-2.66s-1.13-1.76-1.58-2.71a23.39 23.39 0 0 0 1.28 2.47c.5 1 .72 2.09 1.25 3.08-.25.28-.47.58-.7.88a4.77 4.77 0 0 0-1.72-3.12c1.08.87 1.18 2 1.59 3.26l-.09.12c-.08.11-.13.24-.2.36a5 5 0 0 0-2-2.35c-.05 0-.12 0-.07.09a5.22 5.22 0 0 1 1.07 1.16 10.37 10.37 0 0 0 .8 1.22.12.12 0 0 0 .16 0 11.55 11.55 0 0 0-.85 1.72c-.85-.11-1.69-.19-2.54-.37a17.33 17.33 0 0 0-2.93-.6c-.08 0-.08.11 0 .12a13.34 13.34 0 0 1 3.21.87 4.47 4.47 0 0 0 2.1.37c0 .11-.09.21-.13.32s-.1.38-.15.57a9.5 9.5 0 0 0-4.17-.61 28.13 28.13 0 0 1 4.05.81c0 .14-.05.29-.08.43a.16.16 0 0 0-.1 0c-1.94.47-4 .43-5.88 1v.06c1.94-.41 4-.17 5.9-.68 0 .31-.08.63-.11.94a23.54 23.54 0 0 0-4.88 1.62A24.29 24.29 0 0 1 64 78.86v.7a15.81 15.81 0 0 0-2.37.7v.07c.78-.2 1.58-.36 2.37-.54v.3c-2.45 1-4.87 2.1-7.31 3.16-.06 0 0 .12 0 .1 2.44-1 4.92-1.85 7.35-2.84a11.22 11.22 0 0 0 .41 2c.09.26.2.51.31.76a5.91 5.91 0 0 0-1.57.95s0 .07 0 0c.48-.41 1.1-.51 1.59-.89a11.56 11.56 0 0 0 .72 1.45 7.05 7.05 0 0 0-1.66 1.54.06.06 0 0 0 .08.08 7.91 7.91 0 0 1 1.62-1.4c.09.15.16.31.26.45.25.35.52.68.79 1a5 5 0 0 0-1.3 1.25 12.3 12.3 0 0 1-1.62 1.79c-.08.07 0 .18.11.11A10.09 10.09 0 0 0 65.2 88a8.34 8.34 0 0 1 1.57-1.46c.13.14.27.26.4.4-.81.77-1.26 1.82-2 2.66-.9 1-2 1.87-2.89 2.87-.07.07 0 .18.11.11.87-.88 1.83-1.66 2.73-2.51s1.48-2 2.38-2.8c.15.14.29.29.44.42H68c-1.11 1.4-2.4 2.64-3.4 4.11a23.72 23.72 0 0 1-3.39 4.66s0 .1.06.06a20.26 20.26 0 0 0 3.26-4.16c1.08-1.6 2.82-2.78 3.73-4.48q.36.26.73.5c-.36.46-.66 1-1.06 1.39-.07.07 0 .18.11.11a7 7 0 0 0 1.09-1.41l.46.26a16.3 16.3 0 0 1-.81 1.74h.07a8.38 8.38 0 0 0 .91-1.68c.2.11.41.2.62.3a13 13 0 0 1-.54 2c0 .07.07.13.11.06a19.64 19.64 0 0 0 .68-2c.41.16.82.3 1.24.42a10.58 10.58 0 0 0-1.65 4.59 18.15 18.15 0 0 1 1.83-4.54 9.14 9.14 0 0 0 .92.19 11.85 11.85 0 0 0-.95 2.84c.35-.94.63-1.89 1-2.8h.48c-.1.59-.21 1.17-.34 1.76h.1a15.37 15.37 0 0 0 .4-1.77h.8c-.84 2.53.11 5.5-.14 8.13 0 .07.1.08.12 0a36.11 36.11 0 0 0 .35-8.14c.37 0 .71 0 1.05-.07a18.78 18.78 0 0 1 .31 1.86.06.06 0 0 0 .13 0 18.93 18.93 0 0 0-.16-1.62h.09c.28 0 .54-.11.81-.17a16.33 16.33 0 0 0 .55 2.47c-.07-.85-.41-1.65-.43-2.49a11 11 0 0 0 3.76-1.64c.22-.16.43-.33.63-.5 1.31 2.83 4 4.64 6 7-1.87-2.44-4.12-4.56-5.79-7.16.2-.17.38-.36.56-.54a8.36 8.36 0 0 0 1.3 1.62c-.4-.57-.76-1.17-1.2-1.71a11 11 0 0 0 1.4-1.73 9.18 9.18 0 0 0 .64-1.16 4.46 4.46 0 0 0 1.89 1c.05 0 .07-.06 0-.08a6.53 6.53 0 0 1-1.78-1 .1.1 0 0 0-.07 0 10.92 10.92 0 0 0 .49-1.28h.1v-.06h-.08c0-.11.07-.22.1-.32s.06-.25.09-.38c1.69.4 3.36.82 5 1.31a.08.08 0 0 0 .17-.3z" fill="#0d465b"/><path class="cls-1" d="M85.17 83.27a2.85 2.85 0 0 1 1.3.34.07.07 0 0 0 .07-.13 2.63 2.63 0 0 0-1.37-.33.06.06 0 0 0 0 .12z" fill="#0d465b"/><path class="cls-1" d="M85.9 80.84c.65.2 1.35.21 2 .42.05 0 .09-.07 0-.09a4.29 4.29 0 0 0-2-.42v.09z" fill="#0d465b"/><path class="cls-1" d="M93.75 78.88a67.09 67.09 0 0 0-7.92 0 .19.19 0 0 0 0 .38c2.65.07 5.27-.42 7.92-.19.11-.01.11-.19 0-.19z" fill="#0d465b"/><path class="cls-1" d="M85.62 79.88c-.09 0 0 .2.07.17a2.62 2.62 0 0 1 1.71.05c.06 0 .11-.08 0-.11a2.13 2.13 0 0 0-1.78-.11z" fill="#0d465b"/><path class="cls-1" d="M86 71.93c1.27-1.08 2.48-2.24 3.65-3.44a.05.05 0 0 0-.07-.07c-1.2 1.16-2.44 2.29-3.69 3.4-.11.07 0 .18.11.11z" fill="#0d465b"/><path class="cls-1" d="M82.38 70.26a37.18 37.18 0 0 0 4.84-5.41c.06-.07 0-.18-.1-.1-1.55 1.86-3.21 3.62-4.83 5.42a.07.07 0 0 0 .09.09z" fill="#0d465b"/><path class="cls-1" d="M82.15 68.83a13.53 13.53 0 0 1 .85-1.34s0-.11-.08-.06a13.73 13.73 0 0 0-.92 1.32c0 .09.1.17.15.08z" fill="#0d465b"/><path class="cls-1" d="M84.54 69.88a4.4 4.4 0 0 0-1.38 1.36c-.06.1.09.23.17.13a7.14 7.14 0 0 1 1.3-1.37c.09 0 .01-.18-.09-.12z" fill="#0d465b"/><path class="cls-1" d="M85.89 73.45l-.41.27a.18.18 0 0 0 .19.32c.15-.07.28-.15.43-.23a.21.21 0 0 0-.21-.36z" fill="#0d465b"/></g></g><metadata><rdf:RDF xmlns:rdf="http://www.w3.org/1999/02/22-rdf-syntax-ns#" xmlns:rdfs="http://www.w3.org/2000/01/rdf-schema#" xmlns:dc="http://purl.org/dc/elements/1.1/"><rdf:Description about="https://iconscout.com/legal#licenses" dc:title="house,tyrell,highgarden" dc:description="house,tyrell,highgarden" dc:publisher="Iconscout" dc:date="2018-03-26" dc:format="image/svg+xml" dc:language="en"><dc:creator><rdf:Bag><rdf:li>Roundicons.com</rdf:li></rdf:Bag></dc:creator></rdf:Description></rdf:RDF></metadata></svg>